<svg id="Layer_1" data-name="Layer 1" xmlns="http://www.w3.org/2000/svg" viewBox="0 0 18 12">
  <defs>
    <style>
      .cls-1 {
        fill: #fff;
      }

      .cls-2 {
        fill: #b22234;
      }

      .cls-3 {
        fill: #3c3b6e;
      }
    </style>
  </defs>
  <title>english</title>
  <rect class="cls-1" width="18" height="12"/>
  <rect id="stripe" class="cls-2" width="18" height="1"/>
  <rect class="cls-2" y="2" width="18" height="1"/>
  <rect class="cls-2" y="4" width="18" height="1"/>
  <rect class="cls-2" y="6" width="18" height="1"/>
  <rect class="cls-2" y="8" width="18" height="1"/>
  <rect class="cls-2" y="10" width="18" height="1"/>
  <rect class="cls-3" width="9.88" height="7"/>
  <g id="u">
    <g id="x4">
      <g id="s6">
        <g id="s5">
          <g id="star">
            <polygon id="pt" class="cls-1" points="0.95 0.77 0.61 1.02 0.74 0.62 0.95 0.77"/>
            <polygon class="cls-1" points="0.81 0.82 0.46 0.57 0.89 0.57 0.81 0.82"/>
            <polygon class="cls-1" points="0.71 0.69 0.84 0.29 0.97 0.69 0.71 0.69"/>
            <polygon class="cls-1" points="0.81 0.57 1.23 0.57 0.89 0.82 0.81 0.57"/>
            <polygon class="cls-1" points="0.95 0.62 1.08 1.02 0.74 0.77 0.95 0.62"/>
          </g>
          <g>
            <polygon class="cls-1" points="2.59 0.77 2.25 1.02 2.38 0.62 2.59 0.77"/>
            <polygon class="cls-1" points="2.44 0.82 2.1 0.57 2.52 0.57 2.44 0.82"/>
            <polygon class="cls-1" points="2.35 0.69 2.48 0.29 2.61 0.69 2.35 0.69"/>
            <polygon class="cls-1" points="2.44 0.57 2.86 0.57 2.52 0.82 2.44 0.57"/>
            <polygon class="cls-1" points="2.59 0.62 2.72 1.02 2.38 0.77 2.59 0.62"/>
          </g>
          <g>
            <polygon class="cls-1" points="4.23 0.77 3.89 1.02 4.02 0.62 4.23 0.77"/>
            <polygon class="cls-1" points="4.08 0.82 3.74 0.57 4.16 0.57 4.08 0.82"/>
            <polygon class="cls-1" points="3.99 0.69 4.12 0.29 4.25 0.69 3.99 0.69"/>
            <polygon class="cls-1" points="4.08 0.57 4.5 0.57 4.16 0.82 4.08 0.57"/>
            <polygon class="cls-1" points="4.23 0.62 4.36 1.02 4.02 0.77 4.23 0.62"/>
          </g>
          <g>
            <polygon class="cls-1" points="5.86 0.77 5.52 1.02 5.65 0.62 5.86 0.77"/>
            <polygon class="cls-1" points="5.72 0.82 5.38 0.57 5.8 0.57 5.72 0.82"/>
            <polygon class="cls-1" points="5.63 0.69 5.76 0.29 5.89 0.69 5.63 0.69"/>
            <polygon class="cls-1" points="5.72 0.57 6.14 0.57 5.8 0.82 5.72 0.57"/>
            <polygon class="cls-1" points="5.86 0.62 5.99 1.02 5.65 0.77 5.86 0.62"/>
          </g>
          <g>
            <polygon class="cls-1" points="7.5 0.77 7.16 1.02 7.29 0.62 7.5 0.77"/>
            <polygon class="cls-1" points="7.36 0.82 7.02 0.57 7.44 0.57 7.36 0.82"/>
            <polygon class="cls-1" points="7.27 0.69 7.4 0.29 7.53 0.69 7.27 0.69"/>
            <polygon class="cls-1" points="7.36 0.57 7.78 0.57 7.44 0.82 7.36 0.57"/>
            <polygon class="cls-1" points="7.5 0.62 7.63 1.02 7.29 0.77 7.5 0.62"/>
          </g>
        </g>
        <g>
          <polygon class="cls-1" points="9.14 0.77 8.8 1.02 8.93 0.62 9.14 0.77"/>
          <polygon class="cls-1" points="8.99 0.82 8.65 0.57 9.07 0.57 8.99 0.82"/>
          <polygon class="cls-1" points="8.9 0.69 9.04 0.29 9.16 0.69 8.9 0.69"/>
          <polygon class="cls-1" points="8.99 0.57 9.42 0.57 9.07 0.82 8.99 0.57"/>
          <polygon class="cls-1" points="9.14 0.62 9.27 1.02 8.93 0.77 9.14 0.62"/>
        </g>
      </g>
      <g>
        <g>
          <polygon class="cls-1" points="1.77 1.47 1.43 1.72 1.56 1.32 1.77 1.47"/>
          <polygon class="cls-1" points="1.62 1.52 1.28 1.27 1.7 1.27 1.62 1.52"/>
          <polygon class="cls-1" points="1.53 1.39 1.66 0.99 1.79 1.39 1.53 1.39"/>
          <polygon class="cls-1" points="1.62 1.27 2.04 1.27 1.7 1.52 1.62 1.27"/>
          <polygon class="cls-1" points="1.77 1.32 1.9 1.72 1.56 1.47 1.77 1.32"/>
        </g>
        <g>
          <polygon class="cls-1" points="3.41 1.47 3.07 1.72 3.2 1.32 3.41 1.47"/>
          <polygon class="cls-1" points="3.26 1.52 2.92 1.27 3.34 1.27 3.26 1.52"/>
          <polygon class="cls-1" points="3.17 1.39 3.3 0.99 3.43 1.39 3.17 1.39"/>
          <polygon class="cls-1" points="3.26 1.27 3.68 1.27 3.34 1.52 3.26 1.27"/>
          <polygon class="cls-1" points="3.41 1.32 3.54 1.72 3.2 1.47 3.41 1.32"/>
        </g>
        <g>
          <polygon class="cls-1" points="5.04 1.47 4.71 1.72 4.83 1.32 5.04 1.47"/>
          <polygon class="cls-1" points="4.9 1.52 4.56 1.27 4.98 1.27 4.9 1.52"/>
          <polygon class="cls-1" points="4.81 1.39 4.94 0.99 5.07 1.39 4.81 1.39"/>
          <polygon class="cls-1" points="4.9 1.27 5.32 1.27 4.98 1.52 4.9 1.27"/>
          <polygon class="cls-1" points="5.04 1.32 5.17 1.72 4.83 1.47 5.04 1.32"/>
        </g>
        <g>
          <polygon class="cls-1" points="6.68 1.47 6.34 1.72 6.47 1.32 6.68 1.47"/>
          <polygon class="cls-1" points="6.54 1.52 6.2 1.27 6.62 1.27 6.54 1.52"/>
          <polygon class="cls-1" points="6.45 1.39 6.58 0.99 6.71 1.39 6.45 1.39"/>
          <polygon class="cls-1" points="6.54 1.27 6.96 1.27 6.62 1.52 6.54 1.27"/>
          <polygon class="cls-1" points="6.68 1.32 6.81 1.72 6.47 1.47 6.68 1.32"/>
        </g>
        <g>
          <polygon class="cls-1" points="8.32 1.47 7.98 1.72 8.11 1.32 8.32 1.47"/>
          <polygon class="cls-1" points="8.18 1.52 7.83 1.27 8.26 1.27 8.18 1.52"/>
          <polygon class="cls-1" points="8.09 1.39 8.22 0.99 8.35 1.39 8.09 1.39"/>
          <polygon class="cls-1" points="8.18 1.27 8.6 1.27 8.26 1.52 8.18 1.27"/>
          <polygon class="cls-1" points="8.32 1.32 8.45 1.72 8.11 1.47 8.32 1.32"/>
        </g>
      </g>
      <g>
        <g>
          <g>
            <polygon class="cls-1" points="0.95 2.17 0.61 2.42 0.74 2.02 0.95 2.17"/>
            <polygon class="cls-1" points="0.81 2.22 0.46 1.97 0.89 1.97 0.81 2.22"/>
            <polygon class="cls-1" points="0.71 2.1 0.84 1.7 0.97 2.1 0.71 2.1"/>
            <polygon class="cls-1" points="0.81 1.97 1.23 1.97 0.89 2.22 0.81 1.97"/>
            <polygon class="cls-1" points="0.95 2.02 1.08 2.42 0.74 2.17 0.95 2.02"/>
          </g>
          <g>
            <polygon class="cls-1" points="2.59 2.17 2.25 2.42 2.38 2.02 2.59 2.17"/>
            <polygon class="cls-1" points="2.44 2.22 2.1 1.97 2.52 1.97 2.44 2.22"/>
            <polygon class="cls-1" points="2.35 2.1 2.48 1.7 2.61 2.1 2.35 2.1"/>
            <polygon class="cls-1" points="2.44 1.97 2.86 1.97 2.52 2.22 2.44 1.97"/>
            <polygon class="cls-1" points="2.59 2.02 2.72 2.42 2.38 2.17 2.59 2.02"/>
          </g>
          <g>
            <polygon class="cls-1" points="4.23 2.17 3.89 2.42 4.02 2.02 4.23 2.17"/>
            <polygon class="cls-1" points="4.08 2.22 3.74 1.97 4.16 1.97 4.08 2.22"/>
            <polygon class="cls-1" points="3.99 2.1 4.12 1.7 4.25 2.1 3.99 2.1"/>
            <polygon class="cls-1" points="4.08 1.97 4.5 1.97 4.16 2.22 4.08 1.97"/>
            <polygon class="cls-1" points="4.23 2.02 4.36 2.42 4.02 2.17 4.23 2.02"/>
          </g>
          <g>
            <polygon class="cls-1" points="5.86 2.17 5.52 2.42 5.65 2.02 5.86 2.17"/>
            <polygon class="cls-1" points="5.72 2.22 5.38 1.97 5.8 1.97 5.72 2.22"/>
            <polygon class="cls-1" points="5.63 2.1 5.76 1.7 5.89 2.1 5.63 2.1"/>
            <polygon class="cls-1" points="5.72 1.97 6.14 1.97 5.8 2.22 5.72 1.97"/>
            <polygon class="cls-1" points="5.86 2.02 5.99 2.42 5.65 2.17 5.86 2.02"/>
          </g>
          <g>
            <polygon class="cls-1" points="7.5 2.17 7.16 2.42 7.29 2.02 7.5 2.17"/>
            <polygon class="cls-1" points="7.36 2.22 7.02 1.97 7.44 1.97 7.36 2.22"/>
            <polygon class="cls-1" points="7.27 2.1 7.4 1.7 7.53 2.1 7.27 2.1"/>
            <polygon class="cls-1" points="7.36 1.97 7.78 1.97 7.44 2.22 7.36 1.97"/>
            <polygon class="cls-1" points="7.5 2.02 7.63 2.42 7.29 2.17 7.5 2.02"/>
          </g>
        </g>
        <g>
          <polygon class="cls-1" points="9.14 2.17 8.8 2.42 8.93 2.02 9.14 2.17"/>
          <polygon class="cls-1" points="8.99 2.22 8.65 1.97 9.07 1.97 8.99 2.22"/>
          <polygon class="cls-1" points="8.9 2.1 9.04 1.7 9.16 2.1 8.9 2.1"/>
          <polygon class="cls-1" points="8.99 1.97 9.42 1.97 9.07 2.22 8.99 1.97"/>
          <polygon class="cls-1" points="9.14 2.02 9.27 2.42 8.93 2.17 9.14 2.02"/>
        </g>
      </g>
      <g>
        <g>
          <polygon class="cls-1" points="1.77 2.87 1.43 3.12 1.56 2.72 1.77 2.87"/>
          <polygon class="cls-1" points="1.62 2.92 1.28 2.67 1.7 2.67 1.62 2.92"/>
          <polygon class="cls-1" points="1.53 2.8 1.66 2.4 1.79 2.8 1.53 2.8"/>
          <polygon class="cls-1" points="1.62 2.67 2.04 2.67 1.7 2.92 1.62 2.67"/>
          <polygon class="cls-1" points="1.77 2.72 1.9 3.12 1.56 2.87 1.77 2.72"/>
        </g>
        <g>
          <polygon class="cls-1" points="3.41 2.87 3.07 3.12 3.2 2.72 3.41 2.87"/>
          <polygon class="cls-1" points="3.26 2.92 2.92 2.67 3.34 2.67 3.26 2.92"/>
          <polygon class="cls-1" points="3.17 2.8 3.3 2.4 3.43 2.8 3.17 2.8"/>
          <polygon class="cls-1" points="3.26 2.67 3.68 2.67 3.34 2.92 3.26 2.67"/>
          <polygon class="cls-1" points="3.41 2.72 3.54 3.12 3.2 2.87 3.41 2.72"/>
        </g>
        <g>
          <polygon class="cls-1" points="5.04 2.87 4.71 3.12 4.83 2.72 5.04 2.87"/>
          <polygon class="cls-1" points="4.9 2.92 4.56 2.67 4.98 2.67 4.9 2.92"/>
          <polygon class="cls-1" points="4.81 2.8 4.94 2.4 5.07 2.8 4.81 2.8"/>
          <polygon class="cls-1" points="4.9 2.67 5.32 2.67 4.98 2.92 4.9 2.67"/>
          <polygon class="cls-1" points="5.04 2.72 5.17 3.12 4.83 2.87 5.04 2.72"/>
        </g>
        <g>
          <polygon class="cls-1" points="6.68 2.87 6.34 3.12 6.47 2.72 6.68 2.87"/>
          <polygon class="cls-1" points="6.54 2.92 6.2 2.67 6.62 2.67 6.54 2.92"/>
          <polygon class="cls-1" points="6.45 2.8 6.58 2.4 6.71 2.8 6.45 2.8"/>
          <polygon class="cls-1" points="6.54 2.67 6.96 2.67 6.62 2.92 6.54 2.67"/>
          <polygon class="cls-1" points="6.68 2.72 6.81 3.12 6.47 2.87 6.68 2.72"/>
        </g>
        <g>
          <polygon class="cls-1" points="8.32 2.87 7.98 3.12 8.11 2.72 8.32 2.87"/>
          <polygon class="cls-1" points="8.18 2.92 7.83 2.67 8.26 2.67 8.18 2.92"/>
          <polygon class="cls-1" points="8.09 2.8 8.22 2.4 8.35 2.8 8.09 2.8"/>
          <polygon class="cls-1" points="8.18 2.67 8.6 2.67 8.26 2.92 8.18 2.67"/>
          <polygon class="cls-1" points="8.32 2.72 8.45 3.12 8.11 2.87 8.32 2.72"/>
        </g>
      </g>
    </g>
    <g>
      <g>
        <g>
          <g>
            <polygon class="cls-1" points="0.95 3.58 0.61 3.82 0.74 3.42 0.95 3.58"/>
            <polygon class="cls-1" points="0.81 3.62 0.46 3.38 0.89 3.38 0.81 3.62"/>
            <polygon class="cls-1" points="0.71 3.5 0.84 3.1 0.97 3.5 0.71 3.5"/>
            <polygon class="cls-1" points="0.81 3.38 1.23 3.38 0.89 3.62 0.81 3.38"/>
            <polygon class="cls-1" points="0.95 3.42 1.08 3.82 0.74 3.58 0.95 3.42"/>
          </g>
          <g>
            <polygon class="cls-1" points="2.59 3.58 2.25 3.82 2.38 3.42 2.59 3.58"/>
            <polygon class="cls-1" points="2.44 3.62 2.1 3.38 2.52 3.38 2.44 3.62"/>
            <polygon class="cls-1" points="2.35 3.5 2.48 3.1 2.61 3.5 2.35 3.5"/>
            <polygon class="cls-1" points="2.44 3.38 2.86 3.38 2.52 3.62 2.44 3.38"/>
            <polygon class="cls-1" points="2.59 3.42 2.72 3.82 2.38 3.58 2.59 3.42"/>
          </g>
          <g>
            <polygon class="cls-1" points="4.23 3.58 3.89 3.82 4.02 3.42 4.23 3.58"/>
            <polygon class="cls-1" points="4.08 3.62 3.74 3.38 4.16 3.38 4.08 3.62"/>
            <polygon class="cls-1" points="3.99 3.5 4.12 3.1 4.25 3.5 3.99 3.5"/>
            <polygon class="cls-1" points="4.08 3.38 4.5 3.38 4.16 3.62 4.08 3.38"/>
            <polygon class="cls-1" points="4.23 3.42 4.36 3.82 4.02 3.58 4.23 3.42"/>
          </g>
          <g>
            <polygon class="cls-1" points="5.86 3.58 5.52 3.82 5.65 3.42 5.86 3.58"/>
            <polygon class="cls-1" points="5.72 3.62 5.38 3.38 5.8 3.38 5.72 3.62"/>
            <polygon class="cls-1" points="5.63 3.5 5.76 3.1 5.89 3.5 5.63 3.5"/>
            <polygon class="cls-1" points="5.72 3.38 6.14 3.38 5.8 3.62 5.72 3.38"/>
            <polygon class="cls-1" points="5.86 3.42 5.99 3.82 5.65 3.58 5.86 3.42"/>
          </g>
          <g>
            <polygon class="cls-1" points="7.5 3.58 7.16 3.82 7.29 3.42 7.5 3.58"/>
            <polygon class="cls-1" points="7.36 3.62 7.02 3.38 7.44 3.38 7.36 3.62"/>
            <polygon class="cls-1" points="7.27 3.5 7.4 3.1 7.53 3.5 7.27 3.5"/>
            <polygon class="cls-1" points="7.36 3.38 7.78 3.38 7.44 3.62 7.36 3.38"/>
            <polygon class="cls-1" points="7.5 3.42 7.63 3.82 7.29 3.58 7.5 3.42"/>
          </g>
        </g>
        <g>
          <polygon class="cls-1" points="9.14 3.58 8.8 3.82 8.93 3.42 9.14 3.58"/>
          <polygon class="cls-1" points="8.99 3.62 8.65 3.38 9.07 3.38 8.99 3.62"/>
          <polygon class="cls-1" points="8.9 3.5 9.04 3.1 9.16 3.5 8.9 3.5"/>
          <polygon class="cls-1" points="8.99 3.38 9.42 3.38 9.07 3.62 8.99 3.38"/>
          <polygon class="cls-1" points="9.14 3.42 9.27 3.82 8.93 3.58 9.14 3.42"/>
        </g>
      </g>
      <g>
        <g>
          <polygon class="cls-1" points="1.77 4.28 1.43 4.53 1.56 4.13 1.77 4.28"/>
          <polygon class="cls-1" points="1.62 4.33 1.28 4.08 1.7 4.08 1.62 4.33"/>
          <polygon class="cls-1" points="1.53 4.2 1.66 3.8 1.79 4.2 1.53 4.2"/>
          <polygon class="cls-1" points="1.62 4.08 2.04 4.08 1.7 4.33 1.62 4.08"/>
          <polygon class="cls-1" points="1.77 4.13 1.9 4.53 1.56 4.28 1.77 4.13"/>
        </g>
        <g>
          <polygon class="cls-1" points="3.41 4.28 3.07 4.53 3.2 4.13 3.41 4.28"/>
          <polygon class="cls-1" points="3.26 4.33 2.92 4.08 3.34 4.08 3.26 4.33"/>
          <polygon class="cls-1" points="3.17 4.2 3.3 3.8 3.43 4.2 3.17 4.2"/>
          <polygon class="cls-1" points="3.26 4.08 3.68 4.08 3.34 4.33 3.26 4.08"/>
          <polygon class="cls-1" points="3.41 4.13 3.54 4.53 3.2 4.28 3.41 4.13"/>
        </g>
        <g>
          <polygon class="cls-1" points="5.04 4.28 4.71 4.53 4.83 4.13 5.04 4.28"/>
          <polygon class="cls-1" points="4.9 4.33 4.56 4.08 4.98 4.08 4.9 4.33"/>
          <polygon class="cls-1" points="4.81 4.2 4.94 3.8 5.07 4.2 4.81 4.2"/>
          <polygon class="cls-1" points="4.9 4.08 5.32 4.08 4.98 4.33 4.9 4.08"/>
          <polygon class="cls-1" points="5.04 4.13 5.17 4.53 4.83 4.28 5.04 4.13"/>
        </g>
        <g>
          <polygon class="cls-1" points="6.68 4.28 6.34 4.53 6.47 4.13 6.68 4.28"/>
          <polygon class="cls-1" points="6.54 4.33 6.2 4.08 6.62 4.08 6.54 4.33"/>
          <polygon class="cls-1" points="6.45 4.2 6.58 3.8 6.71 4.2 6.45 4.2"/>
          <polygon class="cls-1" points="6.54 4.08 6.96 4.08 6.62 4.33 6.54 4.08"/>
          <polygon class="cls-1" points="6.68 4.13 6.81 4.53 6.47 4.28 6.68 4.13"/>
        </g>
        <g>
          <polygon class="cls-1" points="8.32 4.28 7.98 4.53 8.11 4.13 8.32 4.28"/>
          <polygon class="cls-1" points="8.18 4.33 7.83 4.08 8.26 4.08 8.18 4.33"/>
          <polygon class="cls-1" points="8.09 4.2 8.22 3.8 8.35 4.2 8.09 4.2"/>
          <polygon class="cls-1" points="8.18 4.08 8.6 4.08 8.26 4.33 8.18 4.08"/>
          <polygon class="cls-1" points="8.32 4.13 8.45 4.53 8.11 4.28 8.32 4.13"/>
        </g>
      </g>
      <g>
        <g>
          <g>
            <polygon class="cls-1" points="0.95 4.98 0.61 5.23 0.74 4.83 0.95 4.98"/>
            <polygon class="cls-1" points="0.81 5.03 0.46 4.78 0.89 4.78 0.81 5.03"/>
            <polygon class="cls-1" points="0.71 4.9 0.84 4.5 0.97 4.9 0.71 4.9"/>
            <polygon class="cls-1" points="0.81 4.78 1.23 4.78 0.89 5.03 0.81 4.78"/>
            <polygon class="cls-1" points="0.95 4.83 1.08 5.23 0.74 4.98 0.95 4.83"/>
          </g>
          <g>
            <polygon class="cls-1" points="2.59 4.98 2.25 5.23 2.38 4.83 2.59 4.98"/>
            <polygon class="cls-1" points="2.44 5.03 2.1 4.78 2.52 4.78 2.44 5.03"/>
            <polygon class="cls-1" points="2.35 4.9 2.48 4.5 2.61 4.9 2.35 4.9"/>
            <polygon class="cls-1" points="2.44 4.78 2.86 4.78 2.52 5.03 2.44 4.78"/>
            <polygon class="cls-1" points="2.59 4.83 2.72 5.23 2.38 4.98 2.59 4.83"/>
          </g>
          <g>
            <polygon class="cls-1" points="4.23 4.98 3.89 5.23 4.02 4.83 4.23 4.98"/>
            <polygon class="cls-1" points="4.08 5.03 3.74 4.78 4.16 4.78 4.08 5.03"/>
            <polygon class="cls-1" points="3.99 4.9 4.12 4.5 4.25 4.9 3.99 4.9"/>
            <polygon class="cls-1" points="4.08 4.78 4.5 4.78 4.16 5.03 4.08 4.78"/>
            <polygon class="cls-1" points="4.23 4.83 4.36 5.23 4.02 4.98 4.23 4.83"/>
          </g>
          <g>
            <polygon class="cls-1" points="5.86 4.98 5.52 5.23 5.65 4.83 5.86 4.98"/>
            <polygon class="cls-1" points="5.72 5.03 5.38 4.78 5.8 4.78 5.72 5.03"/>
            <polygon class="cls-1" points="5.63 4.9 5.76 4.5 5.89 4.9 5.63 4.9"/>
            <polygon class="cls-1" points="5.72 4.78 6.14 4.78 5.8 5.03 5.72 4.78"/>
            <polygon class="cls-1" points="5.86 4.83 5.99 5.23 5.65 4.98 5.86 4.83"/>
          </g>
          <g>
            <polygon class="cls-1" points="7.5 4.98 7.16 5.23 7.29 4.83 7.5 4.98"/>
            <polygon class="cls-1" points="7.36 5.03 7.02 4.78 7.44 4.78 7.36 5.03"/>
            <polygon class="cls-1" points="7.27 4.9 7.4 4.5 7.53 4.9 7.27 4.9"/>
            <polygon class="cls-1" points="7.36 4.78 7.78 4.78 7.44 5.03 7.36 4.78"/>
            <polygon class="cls-1" points="7.5 4.83 7.63 5.23 7.29 4.98 7.5 4.83"/>
          </g>
        </g>
        <g>
          <polygon class="cls-1" points="9.14 4.98 8.8 5.23 8.93 4.83 9.14 4.98"/>
          <polygon class="cls-1" points="8.99 5.03 8.65 4.78 9.07 4.78 8.99 5.03"/>
          <polygon class="cls-1" points="8.9 4.9 9.04 4.5 9.16 4.9 8.9 4.9"/>
          <polygon class="cls-1" points="8.99 4.78 9.42 4.78 9.07 5.03 8.99 4.78"/>
          <polygon class="cls-1" points="9.14 4.83 9.27 5.23 8.93 4.98 9.14 4.83"/>
        </g>
      </g>
      <g>
        <g>
          <polygon class="cls-1" points="1.77 5.68 1.43 5.93 1.56 5.53 1.77 5.68"/>
          <polygon class="cls-1" points="1.62 5.73 1.28 5.48 1.7 5.48 1.62 5.73"/>
          <polygon class="cls-1" points="1.53 5.61 1.66 5.21 1.79 5.61 1.53 5.61"/>
          <polygon class="cls-1" points="1.62 5.48 2.04 5.48 1.7 5.73 1.62 5.48"/>
          <polygon class="cls-1" points="1.77 5.53 1.9 5.93 1.56 5.68 1.77 5.53"/>
        </g>
        <g>
          <polygon class="cls-1" points="3.41 5.68 3.07 5.93 3.2 5.53 3.41 5.68"/>
          <polygon class="cls-1" points="3.26 5.73 2.92 5.48 3.34 5.48 3.26 5.73"/>
          <polygon class="cls-1" points="3.17 5.61 3.3 5.21 3.43 5.61 3.17 5.61"/>
          <polygon class="cls-1" points="3.26 5.48 3.68 5.48 3.34 5.73 3.26 5.48"/>
          <polygon class="cls-1" points="3.41 5.53 3.54 5.93 3.2 5.68 3.41 5.53"/>
        </g>
        <g>
          <polygon class="cls-1" points="5.04 5.68 4.71 5.93 4.83 5.53 5.04 5.68"/>
          <polygon class="cls-1" points="4.9 5.73 4.56 5.48 4.98 5.48 4.9 5.73"/>
          <polygon class="cls-1" points="4.81 5.61 4.94 5.21 5.07 5.61 4.81 5.61"/>
          <polygon class="cls-1" points="4.9 5.48 5.32 5.48 4.98 5.73 4.9 5.48"/>
          <polygon class="cls-1" points="5.04 5.53 5.17 5.93 4.83 5.68 5.04 5.53"/>
        </g>
        <g>
          <polygon class="cls-1" points="6.68 5.68 6.34 5.93 6.47 5.53 6.68 5.68"/>
          <polygon class="cls-1" points="6.54 5.73 6.2 5.48 6.62 5.48 6.54 5.73"/>
          <polygon class="cls-1" points="6.45 5.61 6.58 5.21 6.71 5.61 6.45 5.61"/>
          <polygon class="cls-1" points="6.54 5.48 6.96 5.48 6.62 5.73 6.54 5.48"/>
          <polygon class="cls-1" points="6.68 5.53 6.81 5.93 6.47 5.68 6.68 5.53"/>
        </g>
        <g>
          <polygon class="cls-1" points="8.32 5.68 7.98 5.93 8.11 5.53 8.32 5.68"/>
          <polygon class="cls-1" points="8.18 5.73 7.83 5.48 8.26 5.48 8.18 5.73"/>
          <polygon class="cls-1" points="8.09 5.61 8.22 5.21 8.35 5.61 8.09 5.61"/>
          <polygon class="cls-1" points="8.18 5.48 8.6 5.48 8.26 5.73 8.18 5.48"/>
          <polygon class="cls-1" points="8.32 5.53 8.45 5.93 8.11 5.68 8.32 5.53"/>
        </g>
      </g>
    </g>
    <g>
      <g>
        <g>
          <polygon class="cls-1" points="0.95 6.38 0.61 6.63 0.74 6.23 0.95 6.38"/>
          <polygon class="cls-1" points="0.81 6.43 0.46 6.18 0.89 6.18 0.81 6.43"/>
          <polygon class="cls-1" points="0.71 6.31 0.84 5.91 0.97 6.31 0.71 6.31"/>
          <polygon class="cls-1" points="0.81 6.18 1.23 6.18 0.89 6.43 0.81 6.18"/>
          <polygon class="cls-1" points="0.95 6.23 1.08 6.63 0.74 6.38 0.95 6.23"/>
        </g>
        <g>
          <polygon class="cls-1" points="2.59 6.38 2.25 6.63 2.38 6.23 2.59 6.38"/>
          <polygon class="cls-1" points="2.44 6.43 2.1 6.18 2.52 6.18 2.44 6.43"/>
          <polygon class="cls-1" points="2.35 6.31 2.48 5.91 2.61 6.31 2.35 6.31"/>
          <polygon class="cls-1" points="2.44 6.18 2.86 6.18 2.52 6.43 2.44 6.18"/>
          <polygon class="cls-1" points="2.59 6.23 2.72 6.63 2.38 6.38 2.59 6.23"/>
        </g>
        <g>
          <polygon class="cls-1" points="4.23 6.38 3.89 6.63 4.02 6.23 4.23 6.38"/>
          <polygon class="cls-1" points="4.08 6.43 3.74 6.18 4.16 6.18 4.08 6.43"/>
          <polygon class="cls-1" points="3.99 6.31 4.12 5.91 4.25 6.31 3.99 6.31"/>
          <polygon class="cls-1" points="4.08 6.18 4.5 6.18 4.16 6.43 4.08 6.18"/>
          <polygon class="cls-1" points="4.23 6.23 4.36 6.63 4.02 6.38 4.23 6.23"/>
        </g>
        <g>
          <polygon class="cls-1" points="5.86 6.38 5.52 6.63 5.65 6.23 5.86 6.38"/>
          <polygon class="cls-1" points="5.72 6.43 5.38 6.18 5.8 6.18 5.72 6.43"/>
          <polygon class="cls-1" points="5.63 6.31 5.76 5.91 5.89 6.31 5.63 6.31"/>
          <polygon class="cls-1" points="5.72 6.18 6.14 6.18 5.8 6.43 5.72 6.18"/>
          <polygon class="cls-1" points="5.86 6.23 5.99 6.63 5.65 6.38 5.86 6.23"/>
        </g>
        <g>
          <polygon class="cls-1" points="7.5 6.38 7.16 6.63 7.29 6.23 7.5 6.38"/>
          <polygon class="cls-1" points="7.36 6.43 7.02 6.18 7.44 6.18 7.36 6.43"/>
          <polygon class="cls-1" points="7.27 6.31 7.4 5.91 7.53 6.31 7.27 6.31"/>
          <polygon class="cls-1" points="7.36 6.18 7.78 6.18 7.44 6.43 7.36 6.18"/>
          <polygon class="cls-1" points="7.5 6.23 7.63 6.63 7.29 6.38 7.5 6.23"/>
        </g>
      </g>
      <g>
        <polygon class="cls-1" points="9.14 6.38 8.8 6.63 8.93 6.23 9.14 6.38"/>
        <polygon class="cls-1" points="8.99 6.43 8.65 6.18 9.07 6.18 8.99 6.43"/>
        <polygon class="cls-1" points="8.9 6.31 9.04 5.91 9.16 6.31 8.9 6.31"/>
        <polygon class="cls-1" points="8.99 6.18 9.42 6.18 9.07 6.43 8.99 6.18"/>
        <polygon class="cls-1" points="9.14 6.23 9.27 6.63 8.93 6.38 9.14 6.23"/>
      </g>
    </g>
  </g>
</svg>
