<?xml version="1.0" encoding="utf-8"?>
<!-- Generator: Adobe Illustrator 23.0.2, SVG Export Plug-In . SVG Version: 6.00 Build 0)  -->
<svg version="1.1" id="Layer_1" xmlns="http://www.w3.org/2000/svg" xmlns:xlink="http://www.w3.org/1999/xlink" x="0px" y="0px"
	 viewBox="0 0 1736 919" style="enable-background:new 0 0 1736 919;" xml:space="preserve">
<style type="text/css">
	.st0{clip-path:url(#SVGID_2_);}
	.st1{clip-path:url(#SVGID_4_);}
	.st2{fill:#FFFFFF;}
	.st3{fill:#F6F6F6;}
	.st4{fill:#FF9700;}
	.st5{fill:#DDDDDD;}
	.st6{fill:none;}
	.st7{fill:none;stroke:#252525;stroke-width:2;}
	.st8{fill:#252525;}
	.st9{font-family:'ProximaNova-Regular';}
	.st10{font-size:30px;}
	.st11{fill:#8DFFB7;}
	.st12{fill:none;stroke:#CCCCCC;stroke-width:2;}
	.st13{fill:#750FC2;}
</style>
<g>
	<defs>
		<rect id="SVGID_1_" width="1736" height="919"/>
	</defs>
	<clipPath id="SVGID_2_">
		<use xlink:href="#SVGID_1_"  style="overflow:visible;"/>
	</clipPath>
	<g class="st0">
		<defs>

				<rect id="SVGID_3_" x="-175.7" y="-794.9" transform="matrix(0.9659 -0.2588 0.2588 0.9659 21.0465 408.0569)" width="3472" height="1838"/>
		</defs>
		<clipPath id="SVGID_4_">
			<use xlink:href="#SVGID_3_"  style="overflow:visible;"/>
		</clipPath>
		<g id="Web_1920_1" class="st1">

				<rect x="-175.7" y="-794.9" transform="matrix(0.9659 -0.2588 0.2588 0.9659 21.0465 408.0569)" class="st2" width="3472" height="1838"/>
			<g id="Group_291" transform="translate(-121 -154)">

					<rect id="Rectangle_843" x="243.4" y="-353.7" transform="matrix(0.9659 -0.2588 0.2588 0.9659 102.0671 115.9591)" class="st3" width="496" height="48"/>

					<text transform="matrix(0.9659 -0.2588 0.2588 0.9659 471.3553 -311.8559)" class="st8" style="font-family:'ProximaNova-Bold'; font-size:40px;">32</text>
				<path id="Path_215" class="st3" d="M-221-113.9l479.1-128.4l463.3,1729l-479.1,128.4L-221-113.9z"/>

					<rect id="Rectangle_817" x="481.3" y="-337" transform="matrix(0.9659 -0.2588 0.2588 0.9659 -119.5782 207.7675)" class="st2" width="496" height="1790"/>

					<rect id="Rectangle_818" x="960.4" y="-465.3" transform="matrix(0.9659 -0.2588 0.2588 0.9659 -70.0276 327.3933)" class="st3" width="496" height="1790"/>

					<rect id="Rectangle_819" x="1439.5" y="-593.7" transform="matrix(0.9659 -0.2588 0.2588 0.9659 -20.477 447.0191)" class="st2" width="496" height="1790"/>

					<rect id="Rectangle_820" x="1918.6" y="-722.1" transform="matrix(0.9659 -0.2588 0.2588 0.9659 29.0737 566.6448)" class="st3" width="496" height="1790"/>

					<rect id="Rectangle_821" x="2397.7" y="-850.5" transform="matrix(0.9659 -0.2588 0.2588 0.9659 78.6243 686.2706)" class="st2" width="496" height="1790"/>

					<rect id="Rectangle_822" x="2876.8" y="-978.8" transform="matrix(0.9659 -0.2588 0.2588 0.9659 128.1749 805.8963)" class="st3" width="496" height="1790"/>

					<rect id="Rectangle_844" x="1201.6" y="-610.4" transform="matrix(0.9659 -0.2588 0.2588 0.9659 201.1683 355.2106)" class="st3" width="496" height="48"/>

					<text transform="matrix(0.9659 -0.2588 0.2588 0.9659 1441.1449 -571.7103)" class="st8" style="font-family:'ProximaNova-Bold'; font-size:40px;">8</text>

					<rect id="Rectangle_845" x="2159.8" y="-867.2" transform="matrix(0.9659 -0.2588 0.2588 0.9659 300.2696 594.4621)" class="st3" width="496" height="48"/>

					<text transform="matrix(0.9659 -0.2588 0.2588 0.9659 2399.3433 -828.4587)" class="st8" style="font-family:'ProximaNova-Bold'; font-size:40px;">2</text>
				<g id="Group_8" transform="translate(27 40)">

						<rect id="Rectangle_824" x="-246.1" y="-207.5" transform="matrix(0.9659 -0.2588 0.2588 0.9659 46.5137 -5.6241)" class="st2" width="496" height="56"/>
					<path id="Path_42" class="st4" d="M-241-143.4l50.2-13.5l14.5,54.1l-50.2,13.5L-241-143.4z"/>
					<text transform="matrix(0.9659 -0.2588 0.2588 0.9659 -210.9993 -112.0671)" class="st8 st9 st10">1</text>

						<rect id="Rectangle_881" x="147.1" y="-259.2" transform="matrix(0.9659 -0.2588 0.2588 0.9659 66.4938 42.612)" class="st5" width="96" height="56"/>
					<g id="Rectangle_880" transform="translate(94 144)">

							<rect x="-340.1" y="-351.5" transform="matrix(0.9659 -0.2588 0.2588 0.9659 80.5807 -34.8598)" class="st6" width="496" height="56"/>

							<rect x="-338.1" y="-349.5" transform="matrix(0.9659 -0.2588 0.2588 0.9659 80.5807 -34.8598)" class="st7" width="492" height="52"/>
					</g>
					<text transform="matrix(0.9659 -0.2588 0.2588 0.9659 166.9541 -213.3394)" class="st8 st9 st10">HUN</text>
				</g>
				<g id="Group_9" transform="translate(27 96)">

						<rect id="Rectangle_824-2" x="-217.1" y="-155.3" transform="matrix(0.9659 -0.2588 0.2588 0.9659 33.9953 3.6565)" class="st2" width="496" height="56"/>

						<rect id="Rectangle_879" x="-205.7" y="-98.9" transform="matrix(0.9659 -0.2588 0.2588 0.9659 12.217 -48.9209)" class="st4" width="52" height="56"/>
					<text transform="matrix(0.9659 -0.2588 0.2588 0.9659 -185.6187 -58.9168)" class="st8 st9 st10">2</text>

						<rect id="Rectangle_881-2" x="176.1" y="-207" transform="matrix(0.9659 -0.2588 0.2588 0.9659 53.9754 51.8927)" class="st5" width="96" height="56"/>
					<g id="Rectangle_880-2" transform="translate(94 144)">

							<rect x="-311.1" y="-299.3" transform="matrix(0.9659 -0.2588 0.2588 0.9659 68.0623 -25.5791)" class="st6" width="496" height="56"/>

							<rect x="-309.1" y="-297.3" transform="matrix(0.9659 -0.2588 0.2588 0.9659 68.0623 -25.5791)" class="st7" width="492" height="52"/>
					</g>
					<text transform="matrix(0.9659 -0.2588 0.2588 0.9659 195.9418 -161.1557)" class="st8 st9 st10">HUN</text>
				</g>
				<g id="Group_10" transform="translate(27 152)">

						<rect id="Rectangle_824-3" x="-188.1" y="-103.1" transform="matrix(0.9659 -0.2588 0.2588 0.9659 21.4769 12.9372)" class="st2" width="496" height="56"/>

						<rect id="Rectangle_879-2" x="-176.7" y="-46.7" transform="matrix(0.9659 -0.2588 0.2588 0.9659 -0.3014 -39.6402)" class="st4" width="52" height="56"/>
					<text transform="matrix(0.9659 -0.2588 0.2588 0.9659 -156.1806 -6.8538)" class="st8 st9 st10">3</text>

						<rect id="Rectangle_881-3" x="205.1" y="-154.9" transform="matrix(0.9659 -0.2588 0.2588 0.9659 41.457 61.1734)" class="st5" width="96" height="56"/>
					<g id="Rectangle_880-3" transform="translate(94 144)">

							<rect x="-282.1" y="-247.1" transform="matrix(0.9659 -0.2588 0.2588 0.9659 55.5439 -16.2984)" class="st6" width="496" height="56"/>

							<rect x="-280.1" y="-245.1" transform="matrix(0.9659 -0.2588 0.2588 0.9659 55.5439 -16.2984)" class="st7" width="492" height="52"/>
					</g>
					<text transform="matrix(0.9659 -0.2588 0.2588 0.9659 224.9295 -108.972)" class="st8 st9 st10">HUN</text>
				</g>
				<g id="Group_11" transform="translate(27 208)">

						<rect id="Rectangle_824-4" x="-159.1" y="-50.9" transform="matrix(0.9659 -0.2588 0.2588 0.9659 8.9585 22.2179)" class="st2" width="496" height="56"/>
					<path id="Path_43" class="st4" d="M-154.1,13.2l50.2-13.5l14.5,54.1l-50.2,13.5L-154.1,13.2z"/>
					<text transform="matrix(0.9659 -0.2588 0.2588 0.9659 -127.2084 45.334)" class="st8 st9 st10">4</text>

						<rect id="Rectangle_881-4" x="234" y="-102.7" transform="matrix(0.9659 -0.2588 0.2588 0.9659 28.9386 70.4541)" class="st5" width="96" height="56"/>
					<g id="Rectangle_880-4" transform="translate(94 144)">

							<rect x="-253.1" y="-194.9" transform="matrix(0.9659 -0.2588 0.2588 0.9659 43.0255 -7.0177)" class="st6" width="496" height="56"/>

							<rect x="-251.1" y="-192.9" transform="matrix(0.9659 -0.2588 0.2588 0.9659 43.0255 -7.0177)" class="st7" width="492" height="52"/>
					</g>
					<text transform="matrix(0.9659 -0.2588 0.2588 0.9659 253.9173 -56.7883)" class="st8 st9 st10">HUN</text>
				</g>
				<g id="Group_12" transform="translate(27 264)">

						<rect id="Rectangle_824-5" x="-130.2" y="1.3" transform="matrix(0.9659 -0.2588 0.2588 0.9659 -3.5599 31.4986)" class="st2" width="496" height="56"/>

						<rect id="Rectangle_879-3" x="-118.7" y="57.7" transform="matrix(0.9659 -0.2588 0.2588 0.9659 -25.3382 -21.0788)" class="st4" width="52" height="56"/>
					<text transform="matrix(0.9659 -0.2588 0.2588 0.9659 -98.6843 97.6419)" class="st8 st9 st10">5</text>

						<rect id="Rectangle_881-5" x="263" y="-50.5" transform="matrix(0.9659 -0.2588 0.2588 0.9659 16.4202 79.7348)" class="st5" width="96" height="56"/>
					<g id="Rectangle_880-5" transform="translate(94 144)">

							<rect x="-224.2" y="-142.7" transform="matrix(0.9659 -0.2588 0.2588 0.9659 30.5071 2.263)" class="st6" width="496" height="56"/>

							<rect x="-222.2" y="-140.7" transform="matrix(0.9659 -0.2588 0.2588 0.9659 30.5071 2.263)" class="st7" width="492" height="52"/>
					</g>
					<text transform="matrix(0.9659 -0.2588 0.2588 0.9659 282.905 -4.6046)" class="st8 st9 st10">HUN</text>
				</g>
				<g id="Group_13" transform="translate(27 320)">

						<rect id="Rectangle_824-6" x="-101.2" y="53.5" transform="matrix(0.9659 -0.2588 0.2588 0.9659 -16.0783 40.7793)" class="st2" width="496" height="56"/>

						<rect id="Rectangle_879-4" x="-89.7" y="109.9" transform="matrix(0.9659 -0.2588 0.2588 0.9659 -37.8566 -11.7981)" class="st4" width="52" height="56"/>
					<text transform="matrix(0.9659 -0.2588 0.2588 0.9659 -69.7102 149.8293)" class="st8 st9 st10">6</text>

						<rect id="Rectangle_881-6" x="292" y="1.7" transform="matrix(0.9659 -0.2588 0.2588 0.9659 3.9018 89.0155)" class="st5" width="96" height="56"/>
					<g id="Rectangle_880-6" transform="translate(94 144)">

							<rect x="-195.2" y="-90.5" transform="matrix(0.9659 -0.2588 0.2588 0.9659 17.9887 11.5437)" class="st6" width="496" height="56"/>

							<rect x="-193.2" y="-88.5" transform="matrix(0.9659 -0.2588 0.2588 0.9659 17.9887 11.5437)" class="st7" width="492" height="52"/>
					</g>
					<text transform="matrix(0.9659 -0.2588 0.2588 0.9659 311.8927 47.5791)" class="st8 st9 st10">HUN</text>
				</g>
				<g id="Group_14" transform="translate(27 376)">

						<rect id="Rectangle_824-7" x="-72.2" y="105.6" transform="matrix(0.9659 -0.2588 0.2588 0.9659 -28.5967 50.06)" class="st2" width="496" height="56"/>

						<rect id="Rectangle_879-5" x="-60.7" y="162.1" transform="matrix(0.9659 -0.2588 0.2588 0.9659 -50.375 -2.5174)" class="st4" width="52" height="56"/>
					<text transform="matrix(0.9659 -0.2588 0.2588 0.9659 -39.6212 201.7179)" class="st8 st9 st10">7</text>

						<rect id="Rectangle_881-7" x="321" y="53.9" transform="matrix(0.9659 -0.2588 0.2588 0.9659 -8.6166 98.2962)" class="st5" width="96" height="56"/>
					<g id="Rectangle_880-7" transform="translate(94 144)">

							<rect x="-166.2" y="-38.4" transform="matrix(0.9659 -0.2588 0.2588 0.9659 5.4703 20.8243)" class="st6" width="496" height="56"/>

							<rect x="-164.2" y="-36.4" transform="matrix(0.9659 -0.2588 0.2588 0.9659 5.4703 20.8243)" class="st7" width="492" height="52"/>
					</g>
					<text transform="matrix(0.9659 -0.2588 0.2588 0.9659 340.8805 99.7628)" class="st8 st9 st10">HUN</text>
				</g>
				<g id="Group_15" transform="translate(27 432)">

						<rect id="Rectangle_824-8" x="-43.2" y="157.8" transform="matrix(0.9659 -0.2588 0.2588 0.9659 -41.1151 59.3407)" class="st2" width="496" height="56"/>

						<rect id="Rectangle_879-6" x="-31.8" y="214.2" transform="matrix(0.9659 -0.2588 0.2588 0.9659 -62.8934 6.7633)" class="st4" width="52" height="56"/>
					<text transform="matrix(0.9659 -0.2588 0.2588 0.9659 -11.5914 254.1583)" class="st8 st9 st10">8</text>

						<rect id="Rectangle_881-8" x="350" y="106.1" transform="matrix(0.9659 -0.2588 0.2588 0.9659 -21.135 107.5769)" class="st5" width="96" height="56"/>
					<g id="Rectangle_880-8" transform="translate(94 144)">

							<rect x="-137.2" y="13.8" transform="matrix(0.9659 -0.2588 0.2588 0.9659 -7.0481 30.105)" class="st6" width="496" height="56"/>

							<rect x="-135.2" y="15.8" transform="matrix(0.9659 -0.2588 0.2588 0.9659 -7.0481 30.105)" class="st7" width="492" height="52"/>
					</g>
					<text transform="matrix(0.9659 -0.2588 0.2588 0.9659 369.8682 151.9465)" class="st8 st9 st10">HUN</text>
				</g>
				<g id="Group_16" transform="translate(27 488)">

						<rect id="Rectangle_824-9" x="-14.2" y="210" transform="matrix(0.9659 -0.2588 0.2588 0.9659 -53.6335 68.6214)" class="st2" width="496" height="56"/>

						<rect id="Rectangle_879-7" x="-2.8" y="266.4" transform="matrix(0.9659 -0.2588 0.2588 0.9659 -75.4118 16.044)" class="st11" width="52" height="56"/>
					<text transform="matrix(0.9659 -0.2588 0.2588 0.9659 9.1662 308.5472)" class="st8 st9 st10">64</text>

						<rect id="Rectangle_881-9" x="379" y="158.2" transform="matrix(0.9659 -0.2588 0.2588 0.9659 -33.6534 116.8576)" class="st5" width="96" height="56"/>
					<g id="Rectangle_880-9" transform="translate(94 144)">

							<rect x="-108.2" y="66" transform="matrix(0.9659 -0.2588 0.2588 0.9659 -19.5665 39.3857)" class="st6" width="496" height="56"/>

							<rect x="-106.2" y="68" transform="matrix(0.9659 -0.2588 0.2588 0.9659 -19.5665 39.3857)" class="st7" width="492" height="52"/>
					</g>
					<text transform="matrix(0.9659 -0.2588 0.2588 0.9659 398.8559 204.1302)" class="st8 st9 st10">HUN</text>
				</g>
				<g id="Group_17" transform="translate(27 544)">

						<rect id="Rectangle_824-10" x="14.8" y="262.2" transform="matrix(0.9659 -0.2588 0.2588 0.9659 -66.1519 77.9021)" class="st2" width="496" height="56"/>

						<rect id="Rectangle_879-8" x="26.2" y="318.6" transform="matrix(0.9659 -0.2588 0.2588 0.9659 -87.9302 25.3246)" class="st11" width="52" height="56"/>
					<text transform="matrix(0.9659 -0.2588 0.2588 0.9659 38.1539 360.7309)" class="st8 st9 st10">64</text>

						<rect id="Rectangle_881-10" x="408" y="210.4" transform="matrix(0.9659 -0.2588 0.2588 0.9659 -46.1718 126.1383)" class="st5" width="96" height="56"/>
					<g id="Rectangle_880-10" transform="translate(94 144)">

							<rect x="-79.2" y="118.2" transform="matrix(0.9659 -0.2588 0.2588 0.9659 -32.0849 48.6664)" class="st6" width="496" height="56"/>

							<rect x="-77.2" y="120.2" transform="matrix(0.9659 -0.2588 0.2588 0.9659 -32.0849 48.6664)" class="st7" width="492" height="52"/>
					</g>
					<text transform="matrix(0.9659 -0.2588 0.2588 0.9659 427.8437 256.3009)" class="st8 st9 st10">HUN</text>
				</g>
				<g id="Group_18" transform="translate(27 600)">

						<rect id="Rectangle_824-11" x="43.8" y="314.4" transform="matrix(0.9659 -0.2588 0.2588 0.9659 -78.6703 87.1828)" class="st2" width="496" height="56"/>

						<rect id="Rectangle_879-9" x="55.2" y="370.8" transform="matrix(0.9659 -0.2588 0.2588 0.9659 -100.4486 34.6053)" class="st11" width="52" height="56"/>
					<text transform="matrix(0.9659 -0.2588 0.2588 0.9659 67.1416 412.9146)" class="st8 st9 st10">64</text>

						<rect id="Rectangle_881-11" x="437" y="262.6" transform="matrix(0.9659 -0.2588 0.2588 0.9659 -58.6902 135.419)" class="st5" width="96" height="56"/>
					<g id="Rectangle_880-11" transform="translate(94 144)">

							<rect x="-50.2" y="170.4" transform="matrix(0.9659 -0.2588 0.2588 0.9659 -44.6033 57.9471)" class="st6" width="496" height="56"/>

							<rect x="-48.2" y="172.4" transform="matrix(0.9659 -0.2588 0.2588 0.9659 -44.6033 57.9471)" class="st7" width="492" height="52"/>
					</g>
					<text transform="matrix(0.9659 -0.2588 0.2588 0.9659 456.8314 308.4976)" class="st8 st9 st10">HUN</text>
				</g>
				<g id="Group_19" transform="translate(27 656)">

						<rect id="Rectangle_824-12" x="72.8" y="366.6" transform="matrix(0.9659 -0.2588 0.2588 0.9659 -91.1887 96.4635)" class="st2" width="496" height="56"/>

						<rect id="Rectangle_879-10" x="84.2" y="423" transform="matrix(0.9659 -0.2588 0.2588 0.9659 -112.967 43.886)" class="st11" width="52" height="56"/>
					<text transform="matrix(0.9659 -0.2588 0.2588 0.9659 96.1294 465.0983)" class="st8 st9 st10">64</text>

						<rect id="Rectangle_881-12" x="465.9" y="314.8" transform="matrix(0.9659 -0.2588 0.2588 0.9659 -71.2086 144.6997)" class="st5" width="96" height="56"/>
					<g id="Rectangle_880-12" transform="translate(94 144)">

							<rect x="-21.2" y="222.6" transform="matrix(0.9659 -0.2588 0.2588 0.9659 -57.1217 67.2278)" class="st6" width="496" height="56"/>

							<rect x="-19.2" y="224.6" transform="matrix(0.9659 -0.2588 0.2588 0.9659 -57.1217 67.2278)" class="st7" width="492" height="52"/>
					</g>
					<text transform="matrix(0.9659 -0.2588 0.2588 0.9659 485.8191 360.6812)" class="st8 st9 st10">HUN</text>
				</g>
				<g id="Group_20" transform="translate(27 712)">

						<rect id="Rectangle_824-13" x="101.7" y="418.7" transform="matrix(0.9659 -0.2588 0.2588 0.9659 -103.7071 105.7442)" class="st2" width="496" height="56"/>

						<rect id="Rectangle_879-11" x="113.2" y="475.2" transform="matrix(0.9659 -0.2588 0.2588 0.9659 -125.4854 53.1667)" class="st11" width="52" height="56"/>
					<text transform="matrix(0.9659 -0.2588 0.2588 0.9659 125.1171 517.282)" class="st8 st9 st10">64</text>

						<rect id="Rectangle_881-13" x="494.9" y="367" transform="matrix(0.9659 -0.2588 0.2588 0.9659 -83.727 153.9804)" class="st5" width="96" height="56"/>
					<g id="Rectangle_880-13" transform="translate(94 144)">

							<rect x="7.7" y="274.7" transform="matrix(0.9659 -0.2588 0.2588 0.9659 -69.6401 76.5085)" class="st6" width="496" height="56"/>

							<rect x="9.7" y="276.7" transform="matrix(0.9659 -0.2588 0.2588 0.9659 -69.6401 76.5085)" class="st7" width="492" height="52"/>
					</g>
					<text transform="matrix(0.9659 -0.2588 0.2588 0.9659 514.8069 412.8649)" class="st8 st9 st10">HUN</text>
				</g>
				<g id="Group_21" transform="translate(27 768)">

						<rect id="Rectangle_824-14" x="130.7" y="470.9" transform="matrix(0.9659 -0.2588 0.2588 0.9659 -116.2255 115.0249)" class="st2" width="496" height="56"/>

						<rect id="Rectangle_879-12" x="142.2" y="527.3" transform="matrix(0.9659 -0.2588 0.2588 0.9659 -138.0038 62.4474)" class="st11" width="52" height="56"/>
					<text transform="matrix(0.9659 -0.2588 0.2588 0.9659 154.1048 569.4657)" class="st8 st9 st10">64</text>

						<rect id="Rectangle_881-14" x="523.9" y="419.2" transform="matrix(0.9659 -0.2588 0.2588 0.9659 -96.2454 163.2611)" class="st5" width="96" height="56"/>
					<g id="Rectangle_880-14" transform="translate(94 144)">

							<rect x="36.7" y="326.9" transform="matrix(0.9659 -0.2588 0.2588 0.9659 -82.1585 85.7892)" class="st6" width="496" height="56"/>

							<rect x="38.7" y="328.9" transform="matrix(0.9659 -0.2588 0.2588 0.9659 -82.1585 85.7892)" class="st7" width="492" height="52"/>
					</g>
					<text transform="matrix(0.9659 -0.2588 0.2588 0.9659 543.7946 465.0486)" class="st8 st9 st10">HUN</text>
				</g>
				<g id="Group_22" transform="translate(27 824)">

						<rect id="Rectangle_824-15" x="159.7" y="523.1" transform="matrix(0.9659 -0.2588 0.2588 0.9659 -128.7439 124.3056)" class="st2" width="496" height="56"/>

						<rect id="Rectangle_879-13" x="171.2" y="579.5" transform="matrix(0.9659 -0.2588 0.2588 0.9659 -150.5222 71.7281)" class="st11" width="52" height="56"/>
					<text transform="matrix(0.9659 -0.2588 0.2588 0.9659 183.0926 621.6494)" class="st8 st9 st10">64</text>

						<rect id="Rectangle_881-15" x="552.9" y="471.3" transform="matrix(0.9659 -0.2588 0.2588 0.9659 -108.7638 172.5418)" class="st5" width="96" height="56"/>
					<g id="Rectangle_880-15" transform="translate(94 144)">

							<rect x="65.7" y="379.1" transform="matrix(0.9659 -0.2588 0.2588 0.9659 -94.6769 95.0699)" class="st6" width="496" height="56"/>

							<rect x="67.7" y="381.1" transform="matrix(0.9659 -0.2588 0.2588 0.9659 -94.6769 95.0699)" class="st7" width="492" height="52"/>
					</g>
					<text transform="matrix(0.9659 -0.2588 0.2588 0.9659 572.7823 517.2323)" class="st8 st9 st10">HUN</text>
				</g>
				<g id="Group_23" transform="translate(27 880)">

						<rect id="Rectangle_824-16" x="188.7" y="575.3" transform="matrix(0.9659 -0.2588 0.2588 0.9659 -141.2623 133.5863)" class="st2" width="496" height="56"/>

						<rect id="Rectangle_879-14" x="200.1" y="631.7" transform="matrix(0.9659 -0.2588 0.2588 0.9659 -163.0406 81.0088)" class="st11" width="52" height="56"/>
					<text transform="matrix(0.9659 -0.2588 0.2588 0.9659 212.0803 673.8331)" class="st8 st9 st10">64</text>

						<rect id="Rectangle_881-16" x="581.9" y="523.5" transform="matrix(0.9659 -0.2588 0.2588 0.9659 -121.2822 181.8224)" class="st5" width="96" height="56"/>
					<g id="Rectangle_880-16" transform="translate(94 144)">

							<rect x="94.7" y="431.3" transform="matrix(0.9659 -0.2588 0.2588 0.9659 -107.1953 104.3506)" class="st6" width="496" height="56"/>

							<rect x="96.7" y="433.3" transform="matrix(0.9659 -0.2588 0.2588 0.9659 -107.1953 104.3506)" class="st7" width="492" height="52"/>
					</g>
					<text transform="matrix(0.9659 -0.2588 0.2588 0.9659 601.7701 569.416)" class="st8 st9 st10">HUN</text>
				</g>
				<g id="Group_40" transform="translate(771 684)">

						<rect id="Rectangle_824-17" x="780.6" y="7.5" transform="matrix(0.9659 -0.2588 0.2588 0.9659 25.8527 267.4197)" class="st2" width="496" height="56"/>

						<rect id="Rectangle_879-15" x="792" y="63.9" transform="matrix(0.9659 -0.2588 0.2588 0.9659 4.0744 214.8423)" class="st11" width="52" height="56"/>
					<text transform="matrix(0.9659 -0.2588 0.2588 0.9659 803.9213 106.0673)" class="st8 st9 st10">64</text>

						<rect id="Rectangle_881-17" x="1173.7" y="-44.2" transform="matrix(0.9659 -0.2588 0.2588 0.9659 45.8328 315.6559)" class="st5" width="96" height="56"/>
					<g id="Rectangle_880-17" transform="translate(94 144)">

							<rect x="686.6" y="-136.5" transform="matrix(0.9659 -0.2588 0.2588 0.9659 59.9197 238.1841)" class="st6" width="496" height="56"/>

							<rect x="688.6" y="-134.5" transform="matrix(0.9659 -0.2588 0.2588 0.9659 59.9197 238.1841)" class="st7" width="492" height="52"/>
					</g>
					<text transform="matrix(0.9659 -0.2588 0.2588 0.9659 1193.6106 1.6504)" class="st8 st9 st10">HUN</text>
				</g>
				<g id="Group_41" transform="translate(1019 20)">

						<rect id="Rectangle_824-18" x="667.9" y="-739.6" transform="matrix(0.9659 -0.2588 0.2588 0.9659 215.3854 212.8158)" class="st2" width="496" height="56"/>
					<path id="Path_42-2" class="st4" d="M673-675.5l50.2-13.5l14.5,54.1l-50.2,13.5L673-675.5z"/>
					<text transform="matrix(0.9659 -0.2588 0.2588 0.9659 691.3083 -641.0563)" class="st8 st9 st10">64</text>

						<rect id="Rectangle_881-18" x="1061.1" y="-791.4" transform="matrix(0.9659 -0.2588 0.2588 0.9659 235.3655 261.052)" class="st5" width="96" height="56"/>
					<g id="Rectangle_880-18" transform="translate(94 144)">

							<rect x="573.9" y="-883.6" transform="matrix(0.9659 -0.2588 0.2588 0.9659 249.4524 183.5802)" class="st6" width="496" height="56"/>

							<rect x="575.9" y="-881.6" transform="matrix(0.9659 -0.2588 0.2588 0.9659 249.4524 183.5802)" class="st7" width="492" height="52"/>
					</g>
					<text transform="matrix(0.9659 -0.2588 0.2588 0.9659 1080.9982 -745.4734)" class="st8 st9 st10">HUN</text>
				</g>
				<g id="Group_43" transform="translate(1019 903)">

						<rect id="Rectangle_824-19" x="1124.5" y="83.3" transform="matrix(0.9659 -0.2588 0.2588 0.9659 18.4794 358.9527)" class="st2" width="496" height="52"/>

						<rect id="Rectangle_879-16" x="1135.9" y="139.7" transform="matrix(0.9659 -0.2588 0.2588 0.9659 -3.2989 306.3752)" class="st11" width="52" height="52"/>
					<text transform="matrix(0.9659 -0.2588 0.2588 0.9659 1147.8651 179.8368)" class="st8 st9 st10">64</text>

						<rect id="Rectangle_881-19" x="1517.7" y="31.5" transform="matrix(0.9659 -0.2588 0.2588 0.9659 38.4595 407.1889)" class="st5" width="96" height="52"/>
					<g id="Rectangle_880-19" transform="translate(94 144)">

							<rect x="1030.5" y="-60.7" transform="matrix(0.9659 -0.2588 0.2588 0.9659 52.5464 329.717)" class="st6" width="496" height="52"/>

							<rect x="1032.5" y="-58.7" transform="matrix(0.9659 -0.2588 0.2588 0.9659 52.5464 329.717)" class="st7" width="492" height="48"/>
					</g>
					<text transform="matrix(0.9659 -0.2588 0.2588 0.9659 1537.5549 75.4198)" class="st8 st9 st10">HUN</text>
				</g>
				<g id="check-black-18dp" transform="translate(369 187)">
					<path id="Path_83" class="st6" d="M-106.2-411.9l38.6-10.4l10.4,38.6l-38.6,10.4L-106.2-411.9z"/>
					<path id="Path_84" class="st8" d="M-84.9-389.3l-8.9-5.3l-1.7,3.1l11.9,7.1l14.4-26l-3-1.8L-84.9-389.3z"/>
				</g>
				<g id="check-black-18dp-2" transform="translate(369 244)">
					<path id="Path_83-2" class="st6" d="M-76.7-358.8l38.6-10.4l10.4,38.6l-38.6,10.4L-76.7-358.8z"/>
					<path id="Path_84-2" class="st8" d="M-55.4-336.2l-8.9-5.3l-1.7,3.1l11.9,7.1l14.4-26l-3-1.8L-55.4-336.2z"/>
				</g>
				<g id="Group_86" transform="translate(27 64)">
					<line id="Line_5" class="st12" x1="280.8" y1="-279.2" x2="481.7" y2="-333.1"/>
					<line id="Line_6" class="st12" x1="310.3" y1="-169.1" x2="511.2" y2="-222.9"/>
					<line id="Line_7" class="st12" x1="511.7" y1="-221" x2="481.2" y2="-335"/>
				</g>
				<g id="Group_24" transform="translate(275 68)">

						<rect id="Rectangle_824-20" x="-0.5" y="-309.7" transform="matrix(0.9659 -0.2588 0.2588 0.9659 81.3547 54.4548)" class="st2" width="496" height="56"/>
					<path id="Path_42-3" class="st4" d="M4.6-245.6l50.2-13.5L69.3-205l-50.2,13.5L4.6-245.6z"/>
					<text transform="matrix(0.9659 -0.2588 0.2588 0.9659 30.9866 -213.3829)" class="st8 st9 st10">2</text>

						<rect id="Rectangle_881-20" x="392.7" y="-361.5" transform="matrix(0.9659 -0.2588 0.2588 0.9659 101.3348 102.691)" class="st5" width="96" height="56"/>
					<g id="Rectangle_880-20" transform="translate(94 144)">

							<rect x="-94.5" y="-453.7" transform="matrix(0.9659 -0.2588 0.2588 0.9659 115.4217 25.2192)" class="st6" width="496" height="56"/>

							<rect x="-92.5" y="-451.7" transform="matrix(0.9659 -0.2588 0.2588 0.9659 115.4217 25.2192)" class="st7" width="492" height="52"/>
					</g>
					<text transform="matrix(0.9659 -0.2588 0.2588 0.9659 412.5471 -315.6218)" class="st8 st9 st10">HUN</text>
				</g>
				<g id="Group_87" transform="translate(27 176)">
					<line id="Line_5-2" class="st12" x1="338.8" y1="-174.9" x2="539.7" y2="-228.7"/>
					<line id="Line_6-2" class="st12" x1="368.3" y1="-64.7" x2="569.2" y2="-118.6"/>
					<line id="Line_7-2" class="st12" x1="569.7" y1="-116.6" x2="539.2" y2="-230.6"/>
				</g>
				<g id="Group_26" transform="translate(275 180)">

						<rect id="Rectangle_824-21" x="57.5" y="-205.4" transform="matrix(0.9659 -0.2588 0.2588 0.9659 56.3179 73.0162)" class="st2" width="496" height="56"/>
					<path id="Path_42-4" class="st4" d="M62.5-141.3l50.2-13.5l14.5,54.1L77-87.2L62.5-141.3z"/>
					<text transform="matrix(0.9659 -0.2588 0.2588 0.9659 89.4125 -109.1362)" class="st8 st9 st10">3</text>

						<rect id="Rectangle_881-21" x="450.7" y="-257.1" transform="matrix(0.9659 -0.2588 0.2588 0.9659 76.298 121.2524)" class="st5" width="96" height="56"/>
					<g id="Rectangle_880-21" transform="translate(94 144)">

							<rect x="-36.5" y="-349.4" transform="matrix(0.9659 -0.2588 0.2588 0.9659 90.3849 43.7805)" class="st6" width="496" height="56"/>

							<rect x="-34.5" y="-347.4" transform="matrix(0.9659 -0.2588 0.2588 0.9659 90.3849 43.7805)" class="st7" width="492" height="52"/>
					</g>
					<text transform="matrix(0.9659 -0.2588 0.2588 0.9659 470.5226 -211.2544)" class="st8 st9 st10">HUN</text>
				</g>
				<g id="Group_88" transform="translate(27 288)">
					<line id="Line_5-3" class="st12" x1="396.7" y1="-70.5" x2="597.7" y2="-124.3"/>
					<line id="Line_6-3" class="st12" x1="426.2" y1="39.6" x2="627.2" y2="-14.2"/>
					<line id="Line_7-3" class="st12" x1="627.7" y1="-12.3" x2="597.1" y2="-126.3"/>
				</g>
				<g id="Group_28" transform="translate(275 292)">

						<rect id="Rectangle_824-22" x="115.4" y="-101" transform="matrix(0.9659 -0.2588 0.2588 0.9659 31.2811 91.5776)" class="st2" width="496" height="56"/>
					<path id="Path_42-5" class="st4" d="M120.5-36.9l50.2-13.5l14.5,54.1L135,17.2L120.5-36.9z"/>
					<text transform="matrix(0.9659 -0.2588 0.2588 0.9659 146.8951 -4.6368)" class="st8 st9 st10">6</text>

						<rect id="Rectangle_881-22" x="508.6" y="-152.8" transform="matrix(0.9659 -0.2588 0.2588 0.9659 51.2612 139.8138)" class="st5" width="96" height="56"/>
					<g id="Rectangle_880-22" transform="translate(94 144)">

							<rect x="21.4" y="-245" transform="matrix(0.9659 -0.2588 0.2588 0.9659 65.3481 62.3419)" class="st6" width="496" height="56"/>

							<rect x="23.4" y="-243" transform="matrix(0.9659 -0.2588 0.2588 0.9659 65.3481 62.3419)" class="st7" width="492" height="52"/>
					</g>
					<text transform="matrix(0.9659 -0.2588 0.2588 0.9659 528.498 -106.887)" class="st8 st9 st10">HUN</text>
				</g>
				<g id="Group_89" transform="translate(27 400)">
					<line id="Line_5-4" class="st12" x1="454.7" y1="33.9" x2="655.6" y2="-20"/>
					<line id="Line_6-4" class="st12" x1="484.2" y1="144" x2="685.1" y2="90.2"/>
					<line id="Line_7-4" class="st12" x1="685.7" y1="92.1" x2="655.1" y2="-21.9"/>
				</g>
				<g id="Group_30" transform="translate(275 404)">

						<rect id="Rectangle_824-23" x="173.4" y="3.4" transform="matrix(0.9659 -0.2588 0.2588 0.9659 6.2443 110.139)" class="st2" width="496" height="56"/>
					<path id="Path_42-6" class="st4" d="M178.5,67.5L228.7,54l14.5,54.1L193,121.6L178.5,67.5z"/>
					<text transform="matrix(0.9659 -0.2588 0.2588 0.9659 205.014 99.6922)" class="st8 st9 st10">8</text>

						<rect id="Rectangle_881-23" x="566.6" y="-48.4" transform="matrix(0.9659 -0.2588 0.2588 0.9659 26.2244 158.3752)" class="st5" width="96" height="56"/>
					<g id="Rectangle_880-23" transform="translate(94 144)">

							<rect x="79.4" y="-140.6" transform="matrix(0.9659 -0.2588 0.2588 0.9659 40.3113 80.9033)" class="st6" width="496" height="56"/>

							<rect x="81.4" y="-138.6" transform="matrix(0.9659 -0.2588 0.2588 0.9659 40.3113 80.9033)" class="st7" width="492" height="52"/>
					</g>
					<text transform="matrix(0.9659 -0.2588 0.2588 0.9659 586.4735 -2.5196)" class="st8 st9 st10">HUN</text>
				</g>
				<g id="Group_90" transform="translate(27 512)">
					<line id="Line_5-5" class="st12" x1="512.7" y1="138.2" x2="713.6" y2="84.4"/>
					<line id="Line_6-5" class="st12" x1="542.2" y1="248.4" x2="743.1" y2="194.5"/>
					<line id="Line_7-5" class="st12" x1="743.6" y1="196.5" x2="713.1" y2="82.5"/>
				</g>
				<g id="Group_34" transform="translate(275 516)">

						<rect id="Rectangle_824-24" x="231.4" y="107.7" transform="matrix(0.9659 -0.2588 0.2588 0.9659 -18.7925 128.7004)" class="st2" width="496" height="56"/>

						<rect id="Rectangle_879-17" x="242.8" y="164.1" transform="matrix(0.9659 -0.2588 0.2588 0.9659 -40.5708 76.1229)" class="st11" width="52" height="56"/>
					<text transform="matrix(0.9659 -0.2588 0.2588 0.9659 254.7592 206.2648)" class="st8 st9 st10">64</text>

						<rect id="Rectangle_881-24" x="624.6" y="56" transform="matrix(0.9659 -0.2588 0.2588 0.9659 1.1876 176.9366)" class="st5" width="96" height="56"/>
					<g id="Rectangle_880-24" transform="translate(94 144)">

							<rect x="137.4" y="-36.3" transform="matrix(0.9659 -0.2588 0.2588 0.9659 15.2745 99.4647)" class="st6" width="496" height="56"/>

							<rect x="139.4" y="-34.3" transform="matrix(0.9659 -0.2588 0.2588 0.9659 15.2745 99.4647)" class="st7" width="492" height="52"/>
					</g>
					<text transform="matrix(0.9659 -0.2588 0.2588 0.9659 644.449 101.8478)" class="st8 st9 st10">HUN</text>
				</g>
				<g id="Group_91" transform="translate(27 624)">
					<line id="Line_5-6" class="st12" x1="570.7" y1="242.6" x2="771.6" y2="188.8"/>
					<line id="Line_6-6" class="st12" x1="600.2" y1="352.7" x2="801.1" y2="298.9"/>
					<line id="Line_7-6" class="st12" x1="801.6" y1="300.8" x2="771.1" y2="186.8"/>
				</g>
				<g id="Group_35" transform="translate(275 628)">

						<rect id="Rectangle_824-25" x="289.4" y="212.1" transform="matrix(0.9659 -0.2588 0.2588 0.9659 -43.8293 147.2618)" class="st2" width="496" height="56"/>

						<rect id="Rectangle_879-18" x="300.8" y="268.5" transform="matrix(0.9659 -0.2588 0.2588 0.9659 -65.6076 94.6843)" class="st11" width="52" height="56"/>
					<text transform="matrix(0.9659 -0.2588 0.2588 0.9659 312.7347 310.6322)" class="st8 st9 st10">64</text>

						<rect id="Rectangle_881-25" x="682.6" y="160.3" transform="matrix(0.9659 -0.2588 0.2588 0.9659 -23.8492 195.498)" class="st5" width="96" height="56"/>
					<g id="Rectangle_880-25" transform="translate(94 144)">

							<rect x="195.4" y="68.1" transform="matrix(0.9659 -0.2588 0.2588 0.9659 -9.7623 118.0261)" class="st6" width="496" height="56"/>

							<rect x="197.4" y="70.1" transform="matrix(0.9659 -0.2588 0.2588 0.9659 -9.7623 118.0261)" class="st7" width="492" height="52"/>
					</g>
					<text transform="matrix(0.9659 -0.2588 0.2588 0.9659 702.4244 206.2151)" class="st8 st9 st10">HUN</text>
				</g>
				<g id="Group_92" transform="translate(27 736)">
					<line id="Line_5-7" class="st12" x1="628.6" y1="347" x2="829.6" y2="293.1"/>
					<line id="Line_6-7" class="st12" x1="658.1" y1="457.1" x2="859.1" y2="403.3"/>
					<line id="Line_7-7" class="st12" x1="859.6" y1="405.2" x2="829" y2="291.2"/>
				</g>
				<g id="Group_36" transform="translate(275 740)">

						<rect id="Rectangle_824-26" x="347.3" y="316.5" transform="matrix(0.9659 -0.2588 0.2588 0.9659 -68.8661 165.8232)" class="st2" width="496" height="56"/>

						<rect id="Rectangle_879-19" x="358.8" y="372.9" transform="matrix(0.9659 -0.2588 0.2588 0.9659 -90.6444 113.2457)" class="st11" width="52" height="56"/>
					<text transform="matrix(0.9659 -0.2588 0.2588 0.9659 370.7102 414.9996)" class="st8 st9 st10">64</text>

						<rect id="Rectangle_881-26" x="740.5" y="264.7" transform="matrix(0.9659 -0.2588 0.2588 0.9659 -48.886 214.0593)" class="st5" width="96" height="56"/>
					<g id="Rectangle_880-26" transform="translate(94 144)">

							<rect x="253.3" y="172.5" transform="matrix(0.9659 -0.2588 0.2588 0.9659 -34.7991 136.5875)" class="st6" width="496" height="56"/>

							<rect x="255.3" y="174.5" transform="matrix(0.9659 -0.2588 0.2588 0.9659 -34.7991 136.5875)" class="st7" width="492" height="52"/>
					</g>
					<text transform="matrix(0.9659 -0.2588 0.2588 0.9659 760.3999 310.5826)" class="st8 st9 st10">HUN</text>
				</g>
				<g id="Group_93" transform="translate(27 848)">
					<line id="Line_5-8" class="st12" x1="686.6" y1="451.3" x2="887.5" y2="397.5"/>
					<line id="Line_6-8" class="st12" x1="716.1" y1="561.5" x2="917" y2="507.6"/>
					<line id="Line_7-8" class="st12" x1="917.6" y1="509.6" x2="887" y2="395.6"/>
				</g>
				<g id="Group_37" transform="translate(275 852)">

						<rect id="Rectangle_824-27" x="405.3" y="420.8" transform="matrix(0.9659 -0.2588 0.2588 0.9659 -93.9029 184.3845)" class="st2" width="496" height="56"/>

						<rect id="Rectangle_879-20" x="416.7" y="477.2" transform="matrix(0.9659 -0.2588 0.2588 0.9659 -115.6812 131.8071)" class="st11" width="52" height="56"/>
					<text transform="matrix(0.9659 -0.2588 0.2588 0.9659 428.6856 519.3669)" class="st8 st9 st10">64</text>

						<rect id="Rectangle_881-27" x="798.5" y="369.1" transform="matrix(0.9659 -0.2588 0.2588 0.9659 -73.9228 232.6207)" class="st5" width="96" height="56"/>
					<g id="Rectangle_880-27" transform="translate(94 144)">

							<rect x="311.3" y="276.8" transform="matrix(0.9659 -0.2588 0.2588 0.9659 -59.8359 155.1489)" class="st6" width="496" height="56"/>

							<rect x="300.3" y="278.8" transform="matrix(0.9659 -0.2588 0.2588 0.9659 -59.8359 155.1489)" class="st7" width="492" height="52"/>
					</g>
					<text transform="matrix(0.9659 -0.2588 0.2588 0.9659 818.3754 414.9499)" class="st8 st9 st10">HUN</text>
				</g>
				<g id="Group_94" transform="translate(47 65)">
					<line id="Line_5-9" class="st12" x1="754.9" y1="-352.6" x2="955.8" y2="-406.4"/>
					<line id="Line_6-9" class="st12" x1="812.9" y1="-136.2" x2="1013.8" y2="-190"/>
					<path id="Path_85" class="st12" d="M1013.9-189.5l-58.6-218.8"/>
				</g>
				<g id="Group_32" transform="translate(523 124)">

						<rect id="Rectangle_824-28" x="259.6" y="-385.9" transform="matrix(0.9659 -0.2588 0.2588 0.9659 109.9365 119.1742)" class="st2" width="496" height="56"/>
					<path id="Path_42-7" class="st4" d="M264.6-321.8l50.2-13.5l14.5,54.1l-50.2,13.5L264.6-321.8z"/>
					<text transform="matrix(0.9659 -0.2588 0.2588 0.9659 282.9443 -287.3953)" class="st8 st9 st10">64</text>

						<rect id="Rectangle_881-28" x="652.8" y="-437.7" transform="matrix(0.9659 -0.2588 0.2588 0.9659 129.9166 167.4104)" class="st5" width="96" height="56"/>
					<g id="Rectangle_880-28" transform="translate(94 144)">

							<rect x="165.6" y="-529.9" transform="matrix(0.9659 -0.2588 0.2588 0.9659 144.0035 89.9385)" class="st6" width="496" height="56"/>

							<rect x="167.6" y="-527.9" transform="matrix(0.9659 -0.2588 0.2588 0.9659 144.0035 89.9385)" class="st7" width="492" height="52"/>
					</g>
					<text transform="matrix(0.9659 -0.2588 0.2588 0.9659 672.6341 -391.8123)" class="st8 st9 st10">HUN</text>
				</g>
				<g id="Group_95" transform="translate(47 289)">
					<line id="Line_5-10" class="st12" x1="870.9" y1="-143.8" x2="1071.8" y2="-197.7"/>
					<line id="Line_6-10" class="st12" x1="928.8" y1="72.5" x2="1129.7" y2="18.7"/>
					<path id="Path_85-2" class="st12" d="M1129.9,19.2l-58.6-218.8"/>
				</g>
				<g id="Group_31" transform="translate(523 348)">

						<rect id="Rectangle_824-29" x="375.5" y="-177.2" transform="matrix(0.9659 -0.2588 0.2588 0.9659 59.8629 156.2969)" class="st2" width="496" height="56"/>
					<path id="Path_42-8" class="st4" d="M380.6-113.1l50.2-13.5l14.5,54.1L395.1-59L380.6-113.1z"/>
					<text transform="matrix(0.9659 -0.2588 0.2588 0.9659 398.8952 -78.6605)" class="st8 st9 st10">64</text>

						<rect id="Rectangle_881-29" x="768.7" y="-229" transform="matrix(0.9659 -0.2588 0.2588 0.9659 79.843 204.5331)" class="st5" width="96" height="56"/>
					<g id="Rectangle_880-29" transform="translate(94 144)">

							<rect x="281.5" y="-321.2" transform="matrix(0.9659 -0.2588 0.2588 0.9659 93.9299 127.0613)" class="st6" width="496" height="56"/>

							<rect x="283.5" y="-319.2" transform="matrix(0.9659 -0.2588 0.2588 0.9659 93.9299 127.0613)" class="st7" width="492" height="52"/>
					</g>
					<text transform="matrix(0.9659 -0.2588 0.2588 0.9659 788.585 -183.0775)" class="st8 st9 st10">HUN</text>
				</g>
				<g id="Group_96" transform="translate(47 513)">
					<line id="Line_5-11" class="st12" x1="986.8" y1="64.9" x2="1187.7" y2="11.1"/>
					<line id="Line_6-11" class="st12" x1="1044.8" y1="281.3" x2="1245.7" y2="227.4"/>
					<path id="Path_85-3" class="st12" d="M1245.8,227.9L1187.2,9.1"/>
				</g>
				<g id="Group_38" transform="translate(523 572)">

						<rect id="Rectangle_824-30" x="491.5" y="31.5" transform="matrix(0.9659 -0.2588 0.2588 0.9659 9.7893 193.4197)" class="st2" width="496" height="56"/>

						<rect id="Rectangle_879-21" x="502.9" y="88" transform="matrix(0.9659 -0.2588 0.2588 0.9659 -11.989 140.8423)" class="st11" width="52" height="56"/>
					<text transform="matrix(0.9659 -0.2588 0.2588 0.9659 514.8462 130.0743)" class="st8 st9 st10">64</text>

						<rect id="Rectangle_881-30" x="884.7" y="-20.2" transform="matrix(0.9659 -0.2588 0.2588 0.9659 29.7694 241.6559)" class="st5" width="96" height="56"/>
					<g id="Rectangle_880-30" transform="translate(94 144)">

							<rect x="397.5" y="-112.5" transform="matrix(0.9659 -0.2588 0.2588 0.9659 43.8563 164.184)" class="st6" width="496" height="56"/>

							<rect x="399.5" y="-110.5" transform="matrix(0.9659 -0.2588 0.2588 0.9659 43.8563 164.184)" class="st7" width="492" height="52"/>
					</g>
					<text transform="matrix(0.9659 -0.2588 0.2588 0.9659 904.5359 25.6572)" class="st8 st9 st10">HUN</text>
				</g>
				<g id="Group_97" transform="translate(47 737)">
					<line id="Line_5-12" class="st12" x1="1102.8" y1="273.6" x2="1303.7" y2="219.8"/>
					<line id="Line_6-12" class="st12" x1="1160.7" y1="490" x2="1361.6" y2="436.2"/>
					<path id="Path_85-4" class="st12" d="M1361.8,436.7l-58.6-218.8"/>
				</g>
				<g id="Group_39" transform="translate(523 796)">

						<rect id="Rectangle_824-31" x="607.4" y="240.3" transform="matrix(0.9659 -0.2588 0.2588 0.9659 -40.2843 230.5425)" class="st2" width="496" height="56"/>

						<rect id="Rectangle_879-22" x="618.9" y="296.7" transform="matrix(0.9659 -0.2588 0.2588 0.9659 -62.0626 177.965)" class="st11" width="52" height="56"/>
					<text transform="matrix(0.9659 -0.2588 0.2588 0.9659 630.7971 338.8091)" class="st8 st9 st10">64</text>

						<rect id="Rectangle_881-31" x="1000.6" y="188.5" transform="matrix(0.9659 -0.2588 0.2588 0.9659 -20.3042 278.7787)" class="st5" width="96" height="56"/>
					<g id="Rectangle_880-31" transform="translate(94 144)">

							<rect x="513.4" y="96.3" transform="matrix(0.9659 -0.2588 0.2588 0.9659 -6.2173 201.3068)" class="st6" width="496" height="56"/>

							<rect x="515.4" y="98.3" transform="matrix(0.9659 -0.2588 0.2588 0.9659 -6.2173 201.3068)" class="st7" width="492" height="52"/>
					</g>
					<text transform="matrix(0.9659 -0.2588 0.2588 0.9659 1020.4869 234.392)" class="st8 st9 st10">HUN</text>
				</g>
				<g id="Group_98" transform="translate(27 64)">
					<line id="Line_5-13" class="st12" x1="1279.1" y1="-370.7" x2="1480" y2="-424.6"/>
					<line id="Line_6-13" class="st12" x1="1395.1" y1="62" x2="1596" y2="8.2"/>
					<path id="Path_85-5" class="st12" d="M1595.8,7.3l-116.2-433.8"/>
				</g>
				<g id="Group_33" transform="translate(769 236)">

						<rect id="Rectangle_824-32" x="546.8" y="-408.9" transform="matrix(0.9659 -0.2588 0.2588 0.9659 125.6685 192.7271)" class="st2" width="496" height="56"/>
					<path id="Path_42-9" class="st4" d="M551.9-344.8l50.2-13.5l14.5,54.1l-50.2,13.5L551.9-344.8z"/>
					<text transform="matrix(0.9659 -0.2588 0.2588 0.9659 570.1558 -310.367)" class="st8 st9 st10">64</text>

						<rect id="Rectangle_881-32" x="940" y="-460.7" transform="matrix(0.9659 -0.2588 0.2588 0.9659 145.6486 240.9633)" class="st5" width="96" height="56"/>
					<g id="Rectangle_880-32" transform="translate(94 144)">

							<rect x="452.8" y="-552.9" transform="matrix(0.9659 -0.2588 0.2588 0.9659 159.7354 163.4914)" class="st6" width="496" height="56"/>

							<rect x="454.8" y="-550.9" transform="matrix(0.9659 -0.2588 0.2588 0.9659 159.7354 163.4914)" class="st7" width="492" height="52"/>
					</g>
					<text transform="matrix(0.9659 -0.2588 0.2588 0.9659 959.845 -414.7839)" class="st8 st9 st10">HUN</text>
				</g>
				<g id="Group_99" transform="translate(23 511)">
					<line id="Line_5-14" class="st12" x1="1506.8" y1="47.9" x2="1707.7" y2="-6"/>
					<line id="Line_6-14" class="st12" x1="1622.7" y1="480.6" x2="1823.6" y2="426.8"/>
					<path id="Path_85-6" class="st12" d="M1823.4,425.9L1707.2-7.9"/>
				</g>
				<g id="Group_42" transform="translate(771 684)">

						<rect id="Rectangle_824-33" x="780.6" y="7.5" transform="matrix(0.9659 -0.2588 0.2588 0.9659 25.8527 267.4197)" class="st2" width="496" height="56"/>

						<rect id="Rectangle_879-23" x="792" y="63.9" transform="matrix(0.9659 -0.2588 0.2588 0.9659 4.0744 214.8423)" class="st11" width="52" height="56"/>
					<text transform="matrix(0.9659 -0.2588 0.2588 0.9659 803.9213 106.0673)" class="st8 st9 st10">64</text>

						<rect id="Rectangle_881-33" x="1173.7" y="-44.2" transform="matrix(0.9659 -0.2588 0.2588 0.9659 45.8328 315.6559)" class="st5" width="96" height="56"/>
					<g id="Rectangle_880-33" transform="translate(94 144)">

							<rect x="686.6" y="-136.5" transform="matrix(0.9659 -0.2588 0.2588 0.9659 59.9197 238.1841)" class="st6" width="496" height="56"/>

							<rect x="688.6" y="-134.5" transform="matrix(0.9659 -0.2588 0.2588 0.9659 59.9197 238.1841)" class="st7" width="492" height="52"/>
					</g>
					<text transform="matrix(0.9659 -0.2588 0.2588 0.9659 1193.6106 1.6504)" class="st8 st9 st10">HUN</text>
				</g>
				<g id="Group_100" transform="translate(27 64)">
					<line id="Line_6-15" class="st12" x1="1819.8" y1="-284.7" x2="2020.7" y2="-338.6"/>
					<path id="Path_85-7" class="st12" d="M2020.6-339.2l-104.4-389.7"/>
				</g>
				<g id="Group_101" transform="translate(27 64)">
					<line id="Line_6-16" class="st12" x1="2053.6" y1="580.2" x2="2254.6" y2="526.4"/>
					<path id="Path_85-8" class="st12" d="M2360,919.8L2254,524.4"/>
				</g>
				<path id="Path_85-9" class="st12" d="M3354.4,769.3L2894.1-948.6"/>
				<g id="Group_44" transform="translate(1515 462)">

						<rect id="Rectangle_824-34" x="1358.9" y="-584.5" transform="matrix(0.9659 -0.2588 0.2588 0.9659 198.7799 396.9443)" class="st2" width="496" height="56"/>
					<path id="Path_42-10" class="st13" d="M1364-520.4l50.2-13.5l14.5,54.1l-50.2,13.5L1364-520.4z"/>
					<text transform="matrix(0.9659 -0.2588 0.2588 0.9659 1382.3029 -485.9264)" class="st8 st9 st10">64</text>

						<rect id="Rectangle_881-34" x="1752.1" y="-636.2" transform="matrix(0.9659 -0.2588 0.2588 0.9659 218.76 445.1805)" class="st5" width="96" height="56"/>
					<g id="Rectangle_880-34" transform="translate(94 144)">

							<rect x="1264.9" y="-728.5" transform="matrix(0.9659 -0.2588 0.2588 0.9659 232.8469 367.7086)" class="st6" width="496" height="56"/>

							<rect x="1266.9" y="-726.5" transform="matrix(0.9659 -0.2588 0.2588 0.9659 232.8469 367.7086)" class="st7" width="492" height="52"/>
					</g>
					<text transform="matrix(0.9659 -0.2588 0.2588 0.9659 1771.9926 -590.3434)" class="st8 st9 st10">HUN</text>
				</g>

					<rect id="Rectangle_1437" x="2638.9" y="-995.5" transform="matrix(0.9659 -0.2588 0.2588 0.9659 349.8202 714.0878)" class="st2" width="496" height="48"/>
				<g id="emoji_events-black-18dp" transform="translate(1723 155)">

						<rect id="Rectangle_823" x="1143.4" y="-1148.5" transform="matrix(0.9659 -0.2588 0.2588 0.9659 331.7097 262.6613)" class="st6" width="40" height="40"/>
					<path id="Path_33" class="st8" d="M1171.1-1141.8l-3,0.8l-0.8-3l-15,4l0.8,3l-3,0.8c-1.7,0.4-2.6,2.2-2.2,3.8l0.4,1.5
						c1,3.8,4.7,6.2,8.6,5.7c1.6,2,4.1,3.1,6.6,3l1.2,4.7l-6,1.6l0.8,3l15-4l-0.8-3l-6,1.6l-1.2-4.7c2.3-1.1,3.9-3.4,4.2-5.9
						c3.6-1.5,5.6-5.4,4.6-9.2l-0.4-1.5C1174.5-1141.3,1172.8-1142.2,1171.1-1141.8z M1151.3-1131.7l-0.4-1.5l3-0.8l1.5,5.7
						C1153.5-1128.4,1151.8-1129.8,1151.3-1131.7z M1172.3-1137.3c0.5,1.9-0.2,3.9-1.9,5l-1.5-5.7l3-0.8L1172.3-1137.3z"/>
				</g>

					<rect id="Rectangle_1438" x="-235.7" y="-225.3" transform="matrix(0.9659 -0.2588 0.2588 0.9659 52.5165 -3.6667)" class="st2" width="496" height="48"/>

					<text transform="matrix(0.9659 -0.2588 0.2588 0.9659 -7.7438 -183.4817)" class="st8" style="font-family:'ProximaNova-Bold'; font-size:40px;">64</text>

					<rect id="Rectangle_1439" x="722.5" y="-482" transform="matrix(0.9659 -0.2588 0.2588 0.9659 151.6177 235.5848)" class="st2" width="496" height="48"/>

					<text transform="matrix(0.9659 -0.2588 0.2588 0.9659 954.3182 -441.2654)" class="st8" style="font-family:'ProximaNova-Bold'; font-size:40px;">16</text>

					<rect id="Rectangle_882" x="1680.7" y="-738.8" transform="matrix(0.9659 -0.2588 0.2588 0.9659 250.7189 474.8363)" class="st2" width="496" height="48"/>

					<text transform="matrix(0.9659 -0.2588 0.2588 0.9659 1922.1759 -700.6021)" class="st8" style="font-family:'ProximaNova-Bold'; font-size:40px;">4</text>
			</g>
			<text transform="matrix(0.9659 -0.2588 0.2588 0.9659 -140.032 77.5829)" class="st8 st9 st10">DI FRANCISCA Elisa</text>
			<text transform="matrix(0.9659 -0.2588 0.2588 0.9659 -179.4227 -27.8133)" class="st8 st9 st10">POPESCU Ana Maria</text>
			<text transform="matrix(0.9659 -0.2588 0.2588 0.9659 -109.2473 185.2851)" class="st8 st9 st10">DERIGLAZOVA Inna</text>
			<text transform="matrix(0.9659 -0.2588 0.2588 0.9659 -182.3498 -142.98)" class="st8 st9 st10">SIKLOSI Gergely</text>
			<text transform="matrix(0.9659 -0.2588 0.2588 0.9659 -263.6098 -237.1573)" class="st8 st9 st10">MOELLHAUSEN Nathalie</text>
			<text transform="matrix(0.9659 -0.2588 0.2588 0.9659 394.3234 108.3292)" class="st8 st9 st10">YAMADA Masaru</text>
			<text transform="matrix(0.9659 -0.2588 0.2588 0.9659 381.5979 -120.1629)" class="st8 st9 st10">BIDA Sergey</text>
			<text transform="matrix(0.9659 -0.2588 0.2588 0.9659 336.2087 -339.9028)" class="st8 st9 st10">SUN Yiwen</text>
			<text transform="matrix(0.9659 -0.2588 0.2588 0.9659 -80.3508 295.5638)" class="st8 st9 st10">POPESCU Ana Maria</text>
			<text transform="matrix(0.9659 -0.2588 0.2588 0.9659 1.8787 387.4108)" class="st8 st9 st10">VOLPI Alice</text>
			<text transform="matrix(0.9659 -0.2588 0.2588 0.9659 -20.2173 509.2823)" class="st8 st9 st10">DI FRANCISCA Elisa</text>
			<text transform="matrix(0.9659 -0.2588 0.2588 0.9659 30.7785 609.4985)" class="st8 st9 st10">FOCONI Alessio</text>
			<text transform="matrix(0.9659 -0.2588 0.2588 0.9659 77.4637 717.0812)" class="st8 st9 st10">LEFORT Enzo</text>
			<text transform="matrix(0.9659 -0.2588 0.2588 0.9659 63.8717 834.6036)" class="st8 st9 st10">MEINHARDT Gerek</text>
			<text transform="matrix(0.9659 -0.2588 0.2588 0.9659 126.9041 933.665)" class="st8 st9 st10">KHARLAN Olga</text>
			<text transform="matrix(0.9659 -0.2588 0.2588 0.9659 141.8128 1045.6212)" class="st8 st9 st10">VELIKAYA Sofya</text>
			<text transform="matrix(0.9659 -0.2588 0.2588 0.9659 177.4224 1152.0305)" class="st8 st9 st10">BRUNET Manon</text>
			<text transform="matrix(0.9659 -0.2588 0.2588 0.9659 223.9996 1255.5011)" class="st8 st9 st10">OH Sanguk</text>
			<text transform="matrix(0.9659 -0.2588 0.2588 0.9659 234.1385 1368.7354)" class="st8 st9 st10">HARTUNG Max</text>
			<text transform="matrix(0.9659 -0.2588 0.2588 0.9659 698.7571 1186.2657)" class="st8 st9 st10">NAVARRIA Mara</text>
			<text transform="matrix(0.9659 -0.2588 0.2588 0.9659 686.1377 957.7452)" class="st8 st9 st10">LIN Sheng</text>
			<text transform="matrix(0.9659 -0.2588 0.2588 0.9659 588.7314 751.9433)" class="st8 st9 st10">DERSHWITZ Eli</text>
			<text transform="matrix(0.9659 -0.2588 0.2588 0.9659 550.1344 530.3835)" class="st8 st9 st10">CHOI Injeong</text>
			<text transform="matrix(0.9659 -0.2588 0.2588 0.9659 458.0945 323.1436)" class="st8 st9 st10">YAMADA Masaru</text>
			<text transform="matrix(0.9659 -0.2588 0.2588 0.9659 821.5325 -356.0645)" class="st8 st9 st10">BIDA Sergey</text>
			<text transform="matrix(0.9659 -0.2588 0.2588 0.9659 1351.3973 -264.069)" class="st8 st9 st10">BIDA Sergey</text>
			<text transform="matrix(0.9659 -0.2588 0.2588 0.9659 1735.1769 -810.0005)" class="st8 st9 st10">BIDA Sergey</text>
			<text transform="matrix(0.9659 -0.2588 0.2588 0.9659 1044.6984 513.8164)" class="st8 st9 st10">CHOI Injeong</text>
			<text transform="matrix(0.9659 -0.2588 0.2588 0.9659 1172.2404 943.4453)" class="st8 st9 st10">CHOI Injeong</text>
			<text transform="matrix(0.9659 -0.2588 0.2588 0.9659 1573.528 601.9482)" class="st8 st9 st10">CHOI Injeong</text>
			<text transform="matrix(0.9659 -0.2588 0.2588 0.9659 2183.3765 891.9907)" class="st8 st9 st10">CHOI Injeong</text>
			<text transform="matrix(0.9659 -0.2588 0.2588 0.9659 2917.1604 -217.7396)" class="st8 st9 st10">CHOI Injeong</text>
		</g>
	</g>
</g>
</svg>
