<svg xmlns="http://www.w3.org/2000/svg" viewBox="0 0 3840 2160"><defs><style>.cls-1{fill:#f6f6f6;}.cls-2{fill:#ccc;}.cls-3{fill:#252525;}.cls-4{fill:#ff9700;}.cls-5{fill:#9b9a9a;}.cls-6{fill:#ddd;}.cls-7{fill:#ececec;}</style></defs><title>bg</title><g id="bg"><rect class="cls-1" y="1831" width="3840" height="329"/><rect class="cls-2" y="1407" width="3840" height="228"/><rect class="cls-3" width="3840" height="1366"/><rect class="cls-4" y="1635" width="3840" height="196"/><rect class="cls-5" y="1366" width="3840" height="41"/></g><g id="fencer_1" data-name="fencer 1"><path class="cls-6" d="M1859,1599s-9-5-13,3-7,21-9,22-11,10-5,17,12,14,17,14h151s5-7,4-12-6-15-13-15-26-4-28-5-35-21-37-22-7-5-8-9-2-11-2-11-11.6087-2.03727-10.30435-1.01863S1908,1597,1908,1597s-22.73292,11.59006-24.36646,12.795S1859,1599,1859,1599Z"/><path class="cls-7" d="M1350,947s-7,1-9,0-18-17-31-22c0,0-26-3-29-2s-5,14-3,19a64.72325,64.72325,0,0,1,3,10,12.13319,12.13319,0,0,0-1,5c0,3,8,14,9,16s10,13,15,13,6-8,3-11,0-6,4-3,12,6,12,6l15,2,3.62112,4.15528L1354,984l4-33Z"/><path class="cls-1" d="M1789.86957,1142.83851,1818,1115s139-59,156-69,34-18,34-18,3,5,7,3,35-19,39-20,12-5,13-9,5-15,5-19-7-4-7-4-1-15-1-16-13-13-13-13l-68,30,5,2s-48,8-51,9-32,21-32,23-23,6-40,12-17,3-17,3-10.03106-3.52795-12.51553-1.764S1821,1031,1821,1031l-19,6-5,53Z"/><path class="cls-1" d="M1677,996s-11-8-15-11-24,2-24,2l-6,3c-2,1-17-3-19-1s-9,4-9,4-31,8-39,4-20-4-20-4-20-9-24-8-14,0-14,0-23-12-45-13c0,0-15-2-17-3s-25-8-31-8-49-12-54-13a58.08828,58.08828,0,0,0-10-1s7,8,4,18-6,19-10,19-4-5-4-5-2-1-2,1,3,7,3,7,88,37,134,47c0,0,27,9,33,13s27,9,33,10,17,12,49,12c0,0,12,6,12,7s9,23,9,23,9,0,12,1,33,1,38-2,30-46,28-49-1-40-4-43A109.66273,109.66273,0,0,1,1677,996Z"/><path class="cls-1" d="M1079,1530s21-2,45-22,85-65,93-66,71-16,71-16,3.57143-22.646,11.28571-21.323a43.50891,43.50891,0,0,0,14.31056,0s10.06212-4.323,10.73292,0S1334,1398,1334,1398s3-6,8-5,52-46,52-46,1-6,4-6,22-18,22-18l29-17s-6-12,1-13,22-13,24-18,9-13,9-13,24-44,40-51a375.539,375.539,0,0,1,36-13s45,140,39,160,93-63,93-63,68,25,88,37,49,19,51,21,16,23,17,36,8.6087,18.36025,8.6087,18.36025S1854,1419,1858,1423s13,36,16,44,9,56,11,62,17,50,22,55,4,13,1,13-16,7-16,7-10,6-14,6-19-11-19-11-38-117-53-138-16-28-21-25-36-17-44-13-84-4-88-9-70-18-70-18l-38-7s-94,28-102,36-49,31-55,35-38,8-38,8-5,8-7,9-21,5-24,5-24-2-24-2-143,59-161,63-24,28-24,28l-13-3-17-4-20-6,19-28"/><path class="cls-7" d="M1811,1036l-3,9-14,5-52-31-4-13s1-8,2-8c.152,0,6.14638-8.48976,9-7,12.35089,6.44791,45.94928,18.77922,59,29C1811.766,1022.94941,1811,1036,1811,1036Z"/><path class="cls-5" d="M1775,883s52-7,67,42,10,66,10,66-11.91742,36.38348-25,39c-5,1-5.677,1.40994-5.677,1.40994L1815,1033l-46-146Z"/><path class="cls-6" d="M1109,1576s-12,13-12,19-3,39-3,47-5,18-5,18-34,16-51-1c0,0-14-15-1-62,7.99047-28.88861,14.46975-43.421,18.27678-50.33124a23.92656,23.92656,0,0,1,7.68885-8.37562c5.21562-3.47544,13.96279-8.98367,16.03437-8.29314,2.46608.822-8.58244,16.51013-12.5932,22.06817a2.78283,2.78283,0,0,0,.6351,3.88353c2.26865,1.65151,6.616,3.66015,13.9581,3.0483,11.14172-.92848,17,5,17,5s12,4,12,7A12.13319,12.13319,0,0,1,1109,1576Z"/><path class="cls-7" d="M2051,950s19-29,36-31c0,0,2-10,4-10s36,3,37,42c0,0-9,4-15,4,0,0,1,10-1,11s-1,15-6,16-7,1-8-1-24,16-26,18-5.51553,5.40994-5.75776,5.205S2057,975,2057,975Z"/><path class="cls-2" d="M2116,921s91.23865-86.471,132-91c27-3,44,10,44,10l-4,1s-21.32371-14.06725-46-6c-52,17-122,90-122,90Z"/><path class="cls-7" d="M1603,1380l93-83s100-168,108-173,9-60,5-67-49-3-49-3-19-31-21-41-17-15-24-13-16,1-16,1-18-7-22-5,11,44,4,56-28,52-46,46-21-17-21-17l-12-5s-2,26-2,28-9,20-8,22-10,18-9,20-10,14-10,18-23,32-23,32Z"/><path class="cls-7" d="M1766,886s8-5,9-3,46,146,46,146,2,7-4,7h-6l-16-11-40-131Z"/><path class="cls-1" d="M1701,904l34,92,5,2,71,38s2.13545-2.51515,2-3c-3.13091-11.20677-43.16588-144.12441-47-147C1762,883,1701,904,1701,904Z"/><path class="cls-6" d="M1738,1006v8l20,42,45-1s5-9,5-10S1738,1006,1738,1006Z"/></g><g id="fencer_2" data-name="fencer 2"><path class="cls-1" d="M2409,1331c-9,5-146,63-153,65s-59,38-59,38c-6,26-41,72-56,84s-57,70-57,70l-24,16-26-33s49-69,54-83,36-64,46-78,13-28,14-31,11-32,36-38c0,0,58-61,107-82,0,0,30-23,34-25s11-18,11-18,70,72,77,84,18-8,18-8,53-86,60-91c1.97811-1.41294,23.42929-24.90375,31-33,4.02012-4.29919,4.85155,8.31518,6,8,4.34222-1.19167-10,23-10,23s3,22,5,24,14,15,8,16,0,13,0,13,2,8,3,9,7,4,7,9,9,9,10,17,13,11,16,21,61,111,61,111,12,8,13,13,8,10,8,10,27,3,33,6,37,25,46,35,23,23,26,25,35,27,32,36l-28,26s-32-33-40-37-51-18-56-19-11-8-11-8-25,3-31,0-58-28-73-65c0,0-96-98-113-105s-21-7-21-7Z"/><path class="cls-7" d="M2500,1205s23-35,24-37,3-16,0-19-28-43-28-43l-16-70s-10,7-19,5-26-12-28-24-7-37-2-45,12-19,12-19-23-3-33-9c0,0-9.52964,1.08618-18-2-9.8543-3.59041-15.92448-13.46224-17-14-2-1-2,41-3,54s-2,15-2,15l105,155S2505,1184,2500,1205Z"/><path class="cls-7" d="M2284,1002l5,36,30,17,54-36-1-22s7-63,3-69,1-13-8-15-22-5-22-5l-61,11Z"/><path class="cls-1" d="M2246,986s-47,44-50,47-22,22-24,22-17,14-17,14-8,4-13,7-28,8-31,8-28,15-30,15-72,18-72,18h-14c-3,0-21-7-24-7s-8,3-8,3,2,38-5,43,14,22,17,21,21-10,21-10,65-5,91-13a218.5445,218.5445,0,0,1,49-9s57-23,69-38,35-19,35-19l26.59006-7.99379L2261,1059l1-60Z"/><path class="cls-6" d="M1952,1106s-18,4-18,25,12,32,12,32,23-4,21-27S1952,1106,1952,1106Z"/><path class="cls-5" d="M1804.32919,1128.30435,1942,1129s4,7,0,8-142.14286-4.2236-142.14286-4.2236Z"/><path class="cls-1" d="M2439.36025,952.10559S2451,949,2456,953s14-5,18-2,6,8,8,9,26,3,26,3l39,18,35,5c7,1,46,44,58,51s55,70,55,70l-3,6s-19,17-24,16-22-16-22-19-7-1-8-3-10-16-10-16-61-46-62-45-27,0-30-1-9-9-9-9h-47l-5.16149,4.65217L2459,1050l-41-38,6-54Z"/><path class="cls-7" d="M2693,1115s12,33,12,37,0,11-1,11-17,11-18,11-4,7-5,6-7-1-8-4-5-16-5-16l-3-20,.04969-11.69565L2690,1112Z"/><path class="cls-6" d="M2258,998s-3,63-1,67,30,44,32,46,11,14,11,16,12,24,20,30c0,0,8,28,11,36s2,22,2,22,67,88,82,92,24-5,24-5,57-95,61-97c4.5607-2.28035,1-19-1-23s-123-183-127-185-13,28-16,30-34,21-38,22-24-8-25-11-3-33-3-33S2265,1008,2258,998Z"/><path class="cls-1" d="M2258,848l74-17s28,21,35,83c0,0-44,1-53,6,0,0,0,22,1,39s-4,41-9,44-18,3-18,3Z"/><path class="cls-6" d="M2754,1508a133.12072,133.12072,0,0,1,14.8689,6.23272c9.72373,4.77813,21.30706,12.02662,25.1311,20.76728,7,16,27,38,27,38s18,33,11,45-22,16-25,15-24-2-27-10-11-26-11-26l-17-30-7.04969-9.37888-11.32919-11.62733s13.80124,13.42236,17.59006,13.71428S2770,1548,2772,1547s9-11,8-14S2754,1508,2754,1508Z"/><path class="cls-5" d="M2258,848s-39,13-38,47,11,72,18,82,23.62733,26.30435,28.81366,27.65217S2288,1006,2288,1006s14-54-5-104S2258,848,2258,848Z"/><path class="cls-6" d="M1942,1572s-10,6-5,14,26,22,36,27,47,18,48,18,14,9,17,10,46.205,3.5528,50.60248-4.2236S2089,1614,2089,1614s-6-25-5-26-13,7-18,9-12-8-12-8-18-18-20-18-17,0-19,1-26,7-27,7S1942,1572,1942,1572Z"/></g></svg>