<svg xmlns="http://www.w3.org/2000/svg" xmlns:xlink="http://www.w3.org/1999/xlink" width="3840" height="2160" viewBox="0 0 3840 2160">
  <defs>
    <style>
      .a {
        fill: #f6f6f6;
      }

      .b {
        fill: #ccc;
      }

      .c {
        fill: #252525;
      }

      .d {
        fill: url(#a);
      }

      .e {
        fill: url(#b);
      }

      .f {
        fill: #9b9a9a;
      }

      .g {
        fill: #ddd;
      }

      .h {
        fill: #ececec;
      }
    </style>
    <linearGradient id="a" y1="1733" x2="3840" y2="1733" gradientUnits="userSpaceOnUse">
      <stop offset="0" stop-color="#2caa58"/>
      <stop offset="1" stop-color="#001333"/>
    </linearGradient>
    <linearGradient id="b" y1="1733" x2="3840" y2="1733" gradientUnits="userSpaceOnUse">
      <stop offset="0" stop-color="#fff"/>
      <stop offset="1"/>
    </linearGradient>
  </defs>
  <g>
    <rect class="a" y="1831" width="3840" height="329"/>
    <rect class="b" y="1407" width="3840" height="228"/>
    <rect class="c" width="3840" height="1366"/>
    <g>
      <rect class="d" y="1635" width="3840" height="196"/>
      <path class="e" d="M3839,1636v194H1V1636H3839m1-1H0v196H3840V1635Z"/>
    </g>
    <rect class="f" y="1366" width="3840" height="41"/>
  </g>
  <g>
    <path class="g" d="M1859,1599s-9-5-13,3-7,21-9,22-11,10-5,17,12,14,17,14h151s5-7,4-12-6-15-13-15-26-4-28-5-35-21-37-22-7-5-8-9-2-11-2-11-11.6-2-10.3-1,2.3,17,2.3,17-22.7,11.6-24.4,12.8S1859,1599,1859,1599Z"/>
    <path class="h" d="M1350,947s-7,1-9,0-18-17-31-22c0,0-26-3-29-2s-5,14-3,19a64.7,64.7,0,0,1,3,10,12.1,12.1,0,0,0-1,5c0,3,8,14,9,16s10,13,15,13,6-8,3-11,0-6,4-3,12,6,12,6l15,2,3.6,4.2,12.4-.2,4-33Z"/>
    <path class="a" d="M1789.9,1142.8,1818,1115s139-59,156-69,34-18,34-18,3,5,7,3,35-19,39-20,12-5,13-9,5-15,5-19-7-4-7-4-1-15-1-16-13-13-13-13l-68,30,5,2s-48,8-51,9-32,21-32,23-23,6-40,12-17,3-17,3-10-3.5-12.5-1.8-14.5,3.8-14.5,3.8l-19,6-5,53Z"/>
    <path class="a" d="M1677,996l-15-11c-4-3-24,2-24,2l-6,3c-2,1-17-3-19-1s-9,4-9,4-31,8-39,4-20-4-20-4-20-9-24-8-14,0-14,0-23-12-45-13c0,0-15-2-17-3s-25-8-31-8-49-12-54-13a58.1,58.1,0,0,0-10-1s7,8,4,18-6,19-10,19-4-5-4-5-2-1-2,1,3,7,3,7,88,37,134,47c0,0,27,9,33,13s27,9,33,10,17,12,49,12c0,0,12,6,12,7s9,23,9,23,9,0,12,1,33,1,38-2,30-46,28-49-1-40-4-43A109.7,109.7,0,0,1,1677,996Z"/>
    <path class="a" d="M1079,1530s21-2,45-22,85-65,93-66,71-16,71-16,3.6-22.6,11.3-21.3a44.2,44.2,0,0,0,14.3,0s10.1-4.3,10.7,0,9.7-6.7,9.7-6.7,3-6,8-5,52-46,52-46,1-6,4-6,22-18,22-18l29-17s-6-12,1-13,22-13,24-18,9-13,9-13,24-44,40-51a375.5,375.5,0,0,1,36-13s45,140,39,160,93-63,93-63,68,25,88,37,49,19,51,21,16,23,17,36,8.6,18.4,8.6,18.4-1.6,11.6,2.4,15.6,13,36,16,44,9,56,11,62,17,50,22,55,4,13,1,13-16,7-16,7-10,6-14,6-19-11-19-11-38-117-53-138-16-28-21-25-36-17-44-13-84-4-88-9-70-18-70-18l-38-7s-94,28-102,36-49,31-55,35-38,8-38,8-5,8-7,9-21,5-24,5-24-2-24-2-143,59-161,63-24,28-24,28l-13-3-17-4-20-6,19-28"/>
    <path class="h" d="M1811,1036l-3,9-14,5-52-31-4-13s1-8,2-8,6.1-8.5,9-7c12.4,6.4,45.9,18.8,59,29C1811.8,1022.9,1811,1036,1811,1036Z"/>
    <path class="f" d="M1775,883s52-7,67,42,10,66,10,66-11.9,36.4-25,39c-5,1-5.7,1.4-5.7,1.4l-6.3,1.6-46-146Z"/>
    <path class="g" d="M1109,1576s-12,13-12,19-3,39-3,47-5,18-5,18-34,16-51-1c0,0-14-15-1-62,8-28.9,14.5-43.4,18.3-50.3a23,23,0,0,1,7.7-8.4c5.2-3.5,13.9-9,16-8.3s-8.6,16.5-12.6,22.1a2.9,2.9,0,0,0,.6,3.9c2.3,1.6,6.7,3.6,14,3,11.1-.9,17,5,17,5s12,4,12,7A12.1,12.1,0,0,1,1109,1576Z"/>
    <path class="h" d="M2051,950s19-29,36-31c0,0,2-10,4-10s36,3,37,42c0,0-9,4-15,4,0,0,1,10-1,11s-1,15-6,16-7,1-8-1-24,16-26,18-5.5,5.4-5.8,5.2S2057,975,2057,975Z"/>
    <path class="b" d="M2116,921s91.2-86.5,132-91c27-3,44,10,44,10l-4,1s-21.3-14.1-46-6c-52,17-122,90-122,90Z"/>
    <path class="h" d="M1603,1380l93-83s100-168,108-173,9-60,5-67-49-3-49-3-19-31-21-41-17-15-24-13-16,1-16,1-18-7-22-5,11,44,4,56-28,52-46,46-21-17-21-17l-12-5s-2,26-2,28-9,20-8,22-10,18-9,20-10,14-10,18-23,32-23,32Z"/>
    <path class="h" d="M1766,886s8-5,9-3,46,146,46,146,2,7-4,7h-6l-16-11-40-131Z"/>
    <path class="a" d="M1701,904l34,92,5,2,71,38s2.1-2.5,2-3c-3.1-11.2-43.2-144.1-47-147S1701,904,1701,904Z"/>
    <path class="g" d="M1738,1006v8l20,42,45-1s5-9,5-10S1738,1006,1738,1006Z"/>
  </g>
  <g>
    <path class="a" d="M2409,1331c-9,5-146,63-153,65s-59,38-59,38c-6,26-41,72-56,84s-57,70-57,70l-24,16-26-33s49-69,54-83,36-64,46-78,13-28,14-31,11-32,36-38c0,0,58-61,107-82,0,0,30-23,34-25s11-18,11-18,70,72,77,84,18-8,18-8,53-86,60-91c2-1.4,23.4-24.9,31-33,4-4.3,4.9,8.3,6,8,4.3-1.2-10,23-10,23s3,22,5,24,14,15,8,16,0,13,0,13,2,8,3,9,7,4,7,9,9,9,10,17,13,11,16,21,61,111,61,111,12,8,13,13,8,10,8,10,27,3,33,6,37,25,46,35,23,23,26,25,35,27,32,36l-28,26s-32-33-40-37-51-18-56-19-11-8-11-8-25,3-31,0-58-28-73-65c0,0-96-98-113-105s-21-7-21-7Z"/>
    <path class="h" d="M2500,1205s23-35,24-37,3-16,0-19-28-43-28-43l-16-70s-10,7-19,5-26-12-28-24-7-37-2-45l12-19s-23-3-33-9c0,0-9.5,1.1-18-2s-15.9-13.5-17-14-2,41-3,54-2,15-2,15l105,155S2505,1184,2500,1205Z"/>
    <path class="h" d="M2284,1002l5,36,30,17,54-36-1-22s7-63,3-69,1-13-8-15l-22-5-61,11Z"/>
    <path class="a" d="M2246,986s-47,44-50,47-22,22-24,22-17,14-17,14-8,4-13,7-28,8-31,8-28,15-30,15-72,18-72,18h-14c-3,0-21-7-24-7s-8,3-8,3,2,38-5,43,14,22,17,21,21-10,21-10,65-5,91-13a218.5,218.5,0,0,1,49-9s57-23,69-38,35-19,35-19l26.6-8-5.6-21,1-60Z"/>
    <path class="g" d="M1952,1106s-18,4-18,25,12,32,12,32,23-4,21-27S1952,1106,1952,1106Z"/>
    <path class="f" d="M1804.3,1128.3l137.7.7s4,7,0,8-142.1-4.2-142.1-4.2Z"/>
    <path class="a" d="M2439.4,952.1s11.6-3.1,16.6.9,14-5,18-2,6,8,8,9,26,3,26,3l39,18,35,5c7,1,46,44,58,51s55,70,55,70l-3,6s-19,17-24,16-22-16-22-19-7-1-8-3-10-16-10-16-61-46-62-45-27,0-30-1-9-9-9-9h-47l-5.2,4.7L2459,1050l-41-38,6-54Z"/>
    <path class="h" d="M2693,1115s12,33,12,37,0,11-1,11-17,11-18,11-4,7-5,6-7-1-8-4-5-16-5-16l-3-20v-11.7l25-16.3Z"/>
    <path class="g" d="M2258,998s-3,63-1,67,30,44,32,46,11,14,11,16,12,24,20,30c0,0,8,28,11,36s2,22,2,22,67,88,82,92,24-5,24-5,57-95,61-97,1-19-1-23-123-183-127-185-13,28-16,30-34,21-38,22-24-8-25-11-3-33-3-33S2265,1008,2258,998Z"/>
    <path class="a" d="M2258,848l74-17s28,21,35,83c0,0-44,1-53,6,0,0,0,22,1,39s-4,41-9,44-18,3-18,3Z"/>
    <path class="g" d="M2754,1508a146.8,146.8,0,0,1,14.9,6.2c9.7,4.8,21.3,12.1,25.1,20.8,7,16,27,38,27,38s18,33,11,45-22,16-25,15-24-2-27-10-11-26-11-26l-17-30-7-9.4-11.4-11.6s13.8,13.4,17.6,13.7S2770,1548,2772,1547s9-11,8-14S2754,1508,2754,1508Z"/>
    <path class="f" d="M2258,848s-39,13-38,47,11,72,18,82,23.6,26.3,28.8,27.7,21.2,1.3,21.2,1.3,14-54-5-104S2258,848,2258,848Z"/>
    <path class="g" d="M1942,1572s-10,6-5,14,26,22,36,27,47,18,48,18,14,9,17,10,46.2,3.6,50.6-4.2.4-22.8.4-22.8-6-25-5-26-13,7-18,9-12-8-12-8-18-18-20-18-17,0-19,1-26,7-27,7S1942,1572,1942,1572Z"/>
  </g>
</svg>
