<svg id="Layer_1" data-name="Layer 1" xmlns="http://www.w3.org/2000/svg" viewBox="0 0 16 16.4">
  <defs>
    <style>
      .cls-1 {
        fill: none;
      }
    </style>
  </defs>
  <title>backpack-black-18dp</title>
  <g>
    <rect class="cls-1" width="13.5" height="13.5"/>
    <path d="M12.3,5.5v6.8a1.2,1.2,0,0,1-1.2,1.1H4.4a1.1,1.1,0,0,1-1.1-1.1V5.5A2.4,2.4,0,0,1,4.9,3.3V2.1H6.6V3.3H8.9V2.1h1.7V3.3A2.5,2.5,0,0,1,12.3,5.5ZM4.4,7.8V8.9H10V10h1.1V7.8Z" transform="translate(-1 -1)"/>
  </g>
  <path class="cls-1" d="M9.9,11.4h6v6h-6Z" transform="translate(-1 -1)"/>
  <polygon points="15.2 10.4 16 11.2 11.2 16 8.9 13.7 9.7 12.9 11.2 14.4 15.2 10.4"/>
</svg>
