<svg id="Layer_2" data-name="Layer 2" xmlns="http://www.w3.org/2000/svg" viewBox="0 0 18 12"><defs><style>.cls-1{fill:#012169;}.cls-2{fill:#fff;}.cls-3{fill:#c8102e;}</style></defs><rect class="cls-1" width="18" height="12"/><polyline class="cls-2" points="0 0 2 0 18 10.5 18 12 16 12 0 1.5 0 0"/><polyline class="cls-2" points="18 0 16 0 0 10.5 0 12 2 12 18 1.5"/><rect class="cls-2" x="7.5" width="3" height="12"/><rect class="cls-2" y="4" width="18" height="4"/><rect class="cls-3" y="4.75" width="18" height="2.5"/><rect class="cls-3" x="8" width="2" height="12"/><polygon class="cls-3" points="18 0 16.5 0 10.5 4 12 4 18 0"/><polygon class="cls-3" points="0 0 6 4 4.5 4 0 1 0 0"/><polygon class="cls-3" points="0 12 1.5 12 7.5 8 6 8 0 12"/><polygon class="cls-3" points="18 12 12 8 13.5 8 18 11 18 12"/></svg>