<svg id="Layer_1" data-name="Layer 1" xmlns="http://www.w3.org/2000/svg" viewBox="0 0 128 128"><defs><style>.cls-1{fill:#fff;}</style></defs><title>favicon</title><rect width="128" height="128"/><path class="cls-1" d="M15,36.8C15,20.8,27,10,43,10c11,0,17.9,4.9,21,9.4L53.4,29.3a11.1,11.1,0,0,0-9.7-4.9c-6.7,0-11.9,4.7-11.9,12.4S37,49.3,43.7,49.3a11.6,11.6,0,0,0,9.7-4.9L64,54.3c-3.1,4.5-10,9.5-21,9.5C27,63.8,15,53,15,36.8Z"/><path class="cls-1" d="M64,91.1C64,75,76,64.2,92,64.2c11,0,17.9,4.9,21,9.5l-10.6,9.8a11.3,11.3,0,0,0-9.7-4.8c-6.7,0-11.9,4.6-11.9,12.4s5.2,12.5,11.9,12.5a11.5,11.5,0,0,0,9.7-5l10.6,10c-3.1,4.4-10,9.4-21,9.4C76,118,64,107.2,64,91.1Z"/></svg>