<?xml version="1.0" encoding="utf-8"?>
<!-- Generator: Adobe Illustrator 24.1.2, SVG Export Plug-In . SVG Version: 6.00 Build 0)  -->
<svg version="1.1" id="Layer_1" xmlns="http://www.w3.org/2000/svg" xmlns:xlink="http://www.w3.org/1999/xlink" x="0px" y="0px"
	 width="18px" height="18px" viewBox="0 0 18 18" style="enable-background:new 0 0 18 18;" xml:space="preserve">
<style type="text/css">
	.st0{fill:none;}
	.st1{fill-rule:evenodd;clip-rule:evenodd;}
</style>
<path class="st0" d="M0,0h18v18H0V0z"/>
<g>
	<path class="st1" d="M6.8,12.8L9,10.5c-0.3,0-0.5,0-0.8,0c-2,0-6,1-6,3V15H9L6.8,12.8z M8.3,9c1.7,0,3-1.3,3-3s-1.3-3-3-3
		s-3,1.3-3,3S6.6,9,8.3,9"/>
</g>
<polygon points="15,12.8 13.9,11.7 12,13.6 10.1,11.7 9,12.8 10.9,14.7 9,16.6 10.1,17.7 12,15.8 13.9,17.7 15,16.6 13.1,14.7 "/>
</svg>
