<svg id="Layer_1" data-name="Layer 1" xmlns="http://www.w3.org/2000/svg" viewBox="0 0 18 12">
  <defs>
    <style>
      .cls-1 {
        fill: #fff;
      }

      .cls-2 {
        stroke: #000;
        stroke-width: 0.5px;
      }

      .cls-3 {
        stroke: #fff;
      }

      .cls-4 {
        fill: #cd2e3a;
      }

      .cls-5 {
        fill: #0047a0;
      }
    </style>
  </defs>
  <title>korean</title>
  <g>
    <rect class="cls-1" width="18" height="12"/>
    <g>
      <g id="b2">
        <path id="b" class="cls-2" d="M3,3.78,4.63,1.29m-1,2.91L5.26,1.7m-1,2.91L5.88,2.12"/>
        <path class="cls-2" d="M12.12,9.88l1.66-2.49m-1,2.91,1.67-2.5m-1,2.91L15,8.22"/>
      </g>
      <path class="cls-3" d="M12.54,8.36l2.08,1.38"/>
      <circle class="cls-4" cx="9" cy="6" r="3"/>
      <path class="cls-5" d="M6.5,4.34A1.5,1.5,0,1,0,9,6a1.5,1.5,0,0,1,2.5,1.66,3,3,0,1,1-5-3.32Z"/>
    </g>
    <g>
      <g>
        <path class="cls-2" d="M4.63,10.71,3,8.22M5.26,10.3,3.59,7.8M5.88,9.88,4.22,7.39"/>
        <path class="cls-2" d="M13.78,4.61,12.12,2.12M14.41,4.2,12.74,1.7M15,3.78,13.37,1.29"/>
      </g>
      <path class="cls-3" d="M4.11,9.26l.63-.42m7.8-5.2.72-.48m.63-.42.62-.41"/>
    </g>
  </g>
</svg>
