<svg id="Layer_1" data-name="Layer 1" xmlns="http://www.w3.org/2000/svg" viewBox="0 0 18 18"><defs><style>.cls-1{fill:none;}</style></defs><path class="cls-1" d="M0,0H18V18H0Z"/><path d="M14.25,3.75v10.5H3.75V3.75h10.5m0-1.5H3.75a1.51,1.51,0,0,0-1.5,1.5v10.5a1.5,1.5,0,0,0,1.5,1.5h10.5a1.5,1.5,0,0,0,1.5-1.5V3.75A1.5,1.5,0,0,0,14.25,2.25Z"/><path d="M8.31,8.2l-1-1.31V8.2H6.92v-2h.44l.93,1.25V6.2h.43v2Z"/><path d="M9,7.2a1.05,1.05,0,1,1,1.05,1A1,1,0,0,1,9,7.2Zm1.66,0a.61.61,0,1,0-1.22,0,.61.61,0,1,0,1.22,0Z"/><path d="M4.54,11.8v-2H5v2Z"/><path d="M7.11,11.8V10.4l-.57,1.4H6.36l-.57-1.4v1.4H5.36v-2H6L6.45,11l.49-1.22h.6v2Z"/><path d="M9.31,11.8l-.12-.34H8.33l-.13.34H7.72l.77-2H9l.77,2Zm-.55-1.58-.31.86h.62Z"/><path d="M9.78,10.8a1,1,0,0,1,1.07-1,.93.93,0,0,1,.83.45l-.35.19a.6.6,0,0,0-.48-.26.66.66,0,0,0,0,1.32.65.65,0,0,0,.43-.16v-.24h-.53v-.37h.95v.77a1.1,1.1,0,0,1-.85.38A1,1,0,0,1,9.78,10.8Z"/><path d="M12,11.8v-2h1.42v.38h-1v.42h1V11h-1v.45h1v.38Z"/></svg>