<svg id="Layer_1" data-name="Layer 1" xmlns="http://www.w3.org/2000/svg" viewBox="0 0 18 18">
  <defs>
    <style>
      .cls-1 {
        fill: none;
      }

      .cls-2 {
        fill-rule: evenodd;
      }
    </style>
  </defs>
  <title>weapon_control-black</title>
  <path class="cls-1" d="M0,0H18V18H0Z"/>
  <rect class="cls-1" y="2.8" width="13.5" height="13.5"/>
  <polygon class="cls-2" points="11.6 15.4 9 12.8 10.1 11.7 11.6 13.3 15.4 9.4 16.5 10.4 11.6 15.4"/>
  <path d="M6.9,12.7,9,10.6H3.4V9.5h6.7v.2l1.2,1.1V7.3A2.3,2.3,0,0,0,9.6,5.1V3.9H7.9V5H5.6V3.9H3.9V5.1A2.2,2.2,0,0,0,2.3,7.3V14a1.1,1.1,0,0,0,1.1,1.1H9.3Z"/>
</svg>
