<svg id="e2e0b201-6079-4b6c-952e-001ebe3d37ad" data-name="Layer 1" xmlns="http://www.w3.org/2000/svg" viewBox="0 0 14.08 9.73">
  <path d="M8.93,13.88c-1,0-2,0-2.94-.06-.74,0-1.48-.08-2.21-.18A1.87,1.87,0,0,1,2.14,12,20,20,0,0,1,2,8.5q0-.9.09-1.8a6.51,6.51,0,0,1,.15-1A1.77,1.77,0,0,1,3.73,4.37a17.16,17.16,0,0,1,2.15-.18c1.59,0,3.18-.06,4.77,0,1.06,0,2.13.1,3.19.16a3.39,3.39,0,0,1,.72.13,1.71,1.71,0,0,1,1.24,1.5c.09.68.16,1.36.2,2a18.55,18.55,0,0,1-.12,3.65,3.47,3.47,0,0,1-.23.95,1.79,1.79,0,0,1-1.56,1.08c-.86.08-1.72.14-2.58.17m-3.86-7v4.34L11.18,9Z" transform="translate(-1.96 -4.15)"/>
</svg>
